<svg width="37" height="36" viewBox="0 0 37 36" fill="none" xmlns="http://www.w3.org/2000/svg">
<g id="ant-design:team-outlined">
<path id="Vector" d="M29.3089 24.606C28.4289 23.7253 27.4007 23.0065 26.2714 22.4825C27.864 21.1923 28.88 19.2235 28.88 17.0157C28.88 13.1204 25.6315 9.9247 21.7362 9.98447C17.9007 10.0442 14.8104 13.1696 14.8104 17.0157C14.8104 19.2235 15.83 21.1923 17.419 22.4825C16.2895 23.0061 15.2612 23.725 14.3815 24.606C12.462 26.529 11.3722 29.0673 11.3018 31.7743C11.3009 31.8118 11.3075 31.8492 11.3212 31.8841C11.3349 31.919 11.3555 31.9509 11.3817 31.9777C11.4079 32.0046 11.4392 32.026 11.4738 32.0405C11.5084 32.0551 11.5456 32.0626 11.5831 32.0626H13.5518C13.703 32.0626 13.8296 31.9431 13.8331 31.7919C13.8999 29.7528 14.7261 27.8438 16.178 26.3954C16.921 25.6485 17.8048 25.0563 18.7781 24.6532C19.7515 24.2501 20.7952 24.044 21.8487 24.047C23.9897 24.047 26.0042 24.8802 27.5194 26.3954C28.9679 27.8438 29.794 29.7528 29.8643 31.7919C29.8679 31.9431 29.9944 32.0626 30.1456 32.0626H32.1143C32.1519 32.0626 32.189 32.0551 32.2236 32.0405C32.2582 32.026 32.2895 32.0046 32.3157 31.9777C32.342 31.9509 32.3625 31.919 32.3762 31.8841C32.39 31.8492 32.3965 31.8118 32.3956 31.7743C32.3253 29.0673 31.2354 26.529 29.3089 24.606ZM21.8487 21.5157C20.6464 21.5157 19.5143 21.0481 18.6671 20.1974C18.2419 19.7755 17.906 19.2723 17.6795 18.7178C17.453 18.1634 17.3405 17.5689 17.3487 16.97C17.3593 15.8169 17.8198 14.7024 18.6249 13.8763C19.4686 13.0114 20.5972 12.5298 21.803 12.5157C22.9948 12.5052 24.1515 12.9692 25.0022 13.8024C25.8741 14.6567 26.3522 15.7993 26.3522 17.0157C26.3522 18.2181 25.8847 19.3466 25.0339 20.1974C24.6165 20.6168 24.1201 20.9492 23.5733 21.1755C23.0266 21.4018 22.4404 21.5174 21.8487 21.5157ZM13.0421 17.9438C13.0104 17.638 12.9929 17.3286 12.9929 17.0157C12.9929 16.4567 13.0456 15.9118 13.144 15.381C13.1686 15.2544 13.1018 15.1243 12.9858 15.0716C12.5077 14.8571 12.0683 14.5618 11.6886 14.1892C11.2412 13.7554 10.8891 13.2331 10.6548 12.6556C10.4206 12.0781 10.3093 11.4581 10.328 10.8352C10.3597 9.70673 10.8132 8.63447 11.6042 7.82587C12.4725 6.93642 13.6397 6.45126 14.8808 6.46533C16.0022 6.47587 17.085 6.9083 17.9042 7.6747C18.1819 7.93486 18.421 8.22314 18.6214 8.53251C18.6917 8.6415 18.8288 8.6872 18.9483 8.64501C19.5671 8.43056 20.221 8.27939 20.8925 8.20908C21.0893 8.18798 21.2018 7.97705 21.114 7.80126C19.9714 5.54072 17.637 3.97978 14.937 3.93759C11.0382 3.87783 7.78974 7.07353 7.78974 10.9653C7.78974 13.1731 8.80575 15.1419 10.3983 16.4321C9.28036 16.9489 8.25028 17.6626 7.35731 18.5556C5.43075 20.4786 4.34091 23.0169 4.2706 25.7274C4.26966 25.765 4.27624 25.8023 4.28995 25.8372C4.30367 25.8722 4.32423 25.904 4.35044 25.9309C4.37665 25.9577 4.40798 25.9791 4.44257 25.9937C4.47716 26.0082 4.51431 26.0157 4.55185 26.0157H6.52411C6.67528 26.0157 6.80185 25.8962 6.80536 25.745C6.87216 23.7059 7.69833 21.797 9.15028 20.3485C10.1839 19.3149 11.4495 18.5977 12.8311 18.2497C12.9683 18.2145 13.0597 18.0845 13.0421 17.9438Z" fill="white"/>
</g>
</svg>
