<svg xmlns="http://www.w3.org/2000/svg" width="20" height="15" viewBox="0 0 20 15" fill="none">
  <path d="M18.3334 3.33398V11.6673C18.3334 12.2199 18.1139 12.7498 17.7232 13.1405C17.3325 13.5312 16.8026 13.7507 16.2501 13.7507H3.75008C3.19755 13.7507 2.66764 13.5312 2.27694 13.1405C1.88624 12.7498 1.66675 12.2199 1.66675 11.6673V3.33398" stroke="#EC4A0A" stroke-width="1.4" stroke-linecap="round" stroke-linejoin="round"/>
  <path d="M18.3334 3.33333C18.3334 2.7808 18.1139 2.2509 17.7232 1.86019C17.3325 1.46949 16.8026 1.25 16.2501 1.25H3.75008C3.19755 1.25 2.66764 1.46949 2.27694 1.86019C1.88624 2.2509 1.66675 2.7808 1.66675 3.33333L8.89591 7.84722C9.22702 8.05417 9.60962 8.16389 10.0001 8.16389C10.3905 8.16389 10.7731 8.05417 11.1042 7.84722L18.3334 3.33333Z" stroke="#EC4A0A" stroke-width="1.4" stroke-linecap="round" stroke-linejoin="round"/>
</svg>
