<svg width="33" height="32" viewBox="0 0 33 32" fill="none" xmlns="http://www.w3.org/2000/svg">
<g id="eos-icons:products">
<path id="Vector" d="M9.50065 2.66675H4.16732C3.8137 2.66675 3.47456 2.80722 3.22451 3.05727C2.97446 3.30732 2.83398 3.64646 2.83398 4.00008V28.0001C2.83398 28.3537 2.97446 28.6928 3.22451 28.9429C3.47456 29.1929 3.8137 29.3334 4.16732 29.3334H9.50065C9.85427 29.3334 10.1934 29.1929 10.4435 28.9429C10.6935 28.6928 10.834 28.3537 10.834 28.0001V4.00008C10.834 3.64646 10.6935 3.30732 10.4435 3.05727C10.1934 2.80722 9.85427 2.66675 9.50065 2.66675ZM6.83398 28.0001C6.30657 28.0001 5.79099 27.8437 5.35246 27.5507C4.91393 27.2576 4.57214 26.8412 4.37031 26.3539C4.16847 25.8666 4.11566 25.3305 4.21856 24.8132C4.32145 24.2959 4.57543 23.8207 4.94837 23.4478C5.32131 23.0749 5.79646 22.8209 6.31374 22.718C6.83103 22.6151 7.3672 22.6679 7.85447 22.8697C8.34174 23.0716 8.75822 23.4134 9.05124 23.8519C9.34425 24.2904 9.50065 24.806 9.50065 25.3334C9.50065 26.0407 9.2197 26.7189 8.7196 27.219C8.21951 27.7191 7.54123 28.0001 6.83398 28.0001ZM9.50065 16.0001H4.16732V4.00008H9.50065V16.0001ZM8.16732 25.3334C8.16732 25.5971 8.08912 25.8549 7.94261 26.0742C7.7961 26.2934 7.58786 26.4643 7.34423 26.5653C7.10059 26.6662 6.8325 26.6926 6.57386 26.6411C6.31522 26.5897 6.07765 26.4627 5.89118 26.2762C5.70471 26.0898 5.57772 25.8522 5.52627 25.5935C5.47482 25.3349 5.50123 25.0668 5.60214 24.8232C5.70306 24.5795 5.87396 24.3713 6.09322 24.2248C6.31249 24.0783 6.57028 24.0001 6.83398 24.0001C7.18761 24.0001 7.52674 24.1406 7.77679 24.3906C8.02684 24.6407 8.16732 24.9798 8.16732 25.3334ZM18.834 2.66675H13.5007C13.147 2.66675 12.8079 2.80722 12.5578 3.05727C12.3078 3.30732 12.1673 3.64646 12.1673 4.00008V28.0001C12.1673 28.3537 12.3078 28.6928 12.5578 28.9429C12.8079 29.1929 13.147 29.3334 13.5007 29.3334H18.834C19.1876 29.3334 19.5267 29.1929 19.7768 28.9429C20.0268 28.6928 20.1673 28.3537 20.1673 28.0001V4.00008C20.1673 3.64646 20.0268 3.30732 19.7768 3.05727C19.5267 2.80722 19.1876 2.66675 18.834 2.66675ZM16.1673 28.0001C15.6399 28.0001 15.1243 27.8437 14.6858 27.5507C14.2473 27.2576 13.9055 26.8412 13.7036 26.3539C13.5018 25.8666 13.449 25.3305 13.5519 24.8132C13.6548 24.2959 13.9088 23.8207 14.2817 23.4478C14.6546 23.0749 15.1298 22.8209 15.6471 22.718C16.1644 22.6151 16.7005 22.6679 17.1878 22.8697C17.6751 23.0716 18.0916 23.4134 18.3846 23.8519C18.6776 24.2904 18.834 24.806 18.834 25.3334C18.834 26.0407 18.553 26.7189 18.0529 27.219C17.5528 27.7191 16.8746 28.0001 16.1673 28.0001ZM18.834 16.0001H13.5007V4.00008H18.834V16.0001ZM17.5007 25.3334C17.5007 25.5971 17.4225 25.8549 17.2759 26.0742C17.1294 26.2934 16.9212 26.4643 16.6776 26.5653C16.4339 26.6662 16.1658 26.6926 15.9072 26.6411C15.6486 26.5897 15.411 26.4627 15.2245 26.2762C15.038 26.0898 14.911 25.8522 14.8596 25.5935C14.8082 25.3349 14.8346 25.0668 14.9355 24.8232C15.0364 24.5795 15.2073 24.3713 15.4266 24.2248C15.6458 24.0783 15.9036 24.0001 16.1673 24.0001C16.5209 24.0001 16.8601 24.1406 17.1101 24.3906C17.3602 24.6407 17.5007 24.9798 17.5007 25.3334ZM28.1673 2.66675H22.834C22.4804 2.66675 22.1412 2.80722 21.8912 3.05727C21.6411 3.30732 21.5007 3.64646 21.5007 4.00008V28.0001C21.5007 28.3537 21.6411 28.6928 21.8912 28.9429C22.1412 29.1929 22.4804 29.3334 22.834 29.3334H28.1673C28.5209 29.3334 28.8601 29.1929 29.1101 28.9429C29.3602 28.6928 29.5006 28.3537 29.5006 28.0001V4.00008C29.5006 3.64646 29.3602 3.30732 29.1101 3.05727C28.8601 2.80722 28.5209 2.66675 28.1673 2.66675ZM25.5007 28.0001C24.9732 28.0001 24.4577 27.8437 24.0191 27.5507C23.5806 27.2576 23.2388 26.8412 23.037 26.3539C22.8351 25.8666 22.7823 25.3305 22.8852 24.8132C22.9881 24.2959 23.2421 23.8207 23.615 23.4478C23.988 23.0749 24.4631 22.8209 24.9804 22.718C25.4977 22.6151 26.0339 22.6679 26.5211 22.8697C27.0084 23.0716 27.4249 23.4134 27.7179 23.8519C28.0109 24.2904 28.1673 24.806 28.1673 25.3334C28.1673 26.0407 27.8864 26.7189 27.3863 27.219C26.8862 27.7191 26.2079 28.0001 25.5007 28.0001ZM28.1673 16.0001H22.834V4.00008H28.1673V16.0001ZM26.834 25.3334C26.834 25.5971 26.7558 25.8549 26.6093 26.0742C26.4628 26.2934 26.2545 26.4643 26.0109 26.5653C25.7673 26.6662 25.4992 26.6926 25.2405 26.6411C24.9819 26.5897 24.7443 26.4627 24.5578 26.2762C24.3714 26.0898 24.2444 25.8522 24.1929 25.5935C24.1415 25.3349 24.1679 25.0668 24.2688 24.8232C24.3697 24.5795 24.5406 24.3713 24.7599 24.2248C24.9792 24.0783 25.2369 24.0001 25.5007 24.0001C25.8543 24.0001 26.1934 24.1406 26.4435 24.3906C26.6935 24.6407 26.834 24.9798 26.834 25.3334Z" fill="white"/>
</g>
</svg>
