<svg xmlns="http://www.w3.org/2000/svg" width="132" height="26" viewBox="0 0 132 26" fill="none">
  <path d="M8.8425 25.5908H3.92157V13.1924H0.569336V9.15577H3.92144V6.2834C3.92144 2.87964 5.40408 0.438477 10.3117 0.438477C11.3497 0.438477 12.9792 0.649925 12.9792 0.649925V4.39818H11.2676C9.52368 4.39818 8.84276 4.93433 8.84276 6.41658V9.15577H12.9139L12.5514 13.1924H8.84263L8.8425 25.5908ZM20.1337 8.83319C20.062 8.83319 19.9882 8.83583 19.9152 8.83768C15.3522 8.83768 13.2646 12.3066 13.2646 17.2309C13.2646 23.4342 15.9726 25.9169 19.9509 25.9169C22.227 25.9169 23.7224 24.9487 24.6314 23.1417V25.5925H29.3119V9.15749H24.6314V11.685C23.8892 10.0588 22.352 8.85246 20.1337 8.83319ZM21.3238 12.7167C23.2403 12.7167 24.3906 14.0678 24.3906 16.3659L24.395 18.7131C24.395 20.262 23.4449 22.0741 21.3238 22.0741C18.0629 22.0741 18.15 18.5153 18.15 17.3301C18.15 13.343 19.8874 12.7167 21.3238 12.7167ZM31.2021 17.3759C31.2021 15.3787 31.1076 8.84388 39.5314 8.84388C42.9129 8.84388 44.3249 9.93055 44.3249 9.93055L43.19 13.4881C43.19 13.4881 41.7799 12.7033 39.9424 12.7033C37.589 12.7033 36.0873 14.0822 36.0873 16.5083L36.0899 18.2479C36.0899 20.5791 37.5388 22.1353 39.9472 22.1353C41.6212 22.1353 43.1641 21.3431 43.1641 21.3431L44.296 24.8263C44.296 24.8263 43.005 25.9198 39.5551 25.9198C31.5342 25.9198 31.2022 20.0568 31.2022 17.3759H31.2021ZM71.7684 8.83768C76.3315 8.83768 78.4521 12.3066 78.4521 17.2309C78.4521 23.4342 75.744 25.9169 71.7657 25.9169C69.4896 25.9169 67.807 24.9488 66.898 23.1417V25.5925L62.2764 25.5907V0.938192L67.1834 0.50566V11.4623C67.8916 9.54541 70.2191 8.83768 71.7686 8.83768H71.7684ZM70.3928 12.7167C68.4763 12.7167 67.1834 14.0678 67.1834 16.3659L67.1788 18.7131C67.1759 20.262 68.0742 22.0741 70.3928 22.0741C73.6537 22.0741 73.5666 18.5153 73.5666 17.3301C73.5666 13.343 71.8293 12.7167 70.3928 12.7167ZM52.8389 8.85127C47.6634 8.85127 44.9311 11.7032 44.9311 16.7713V17.713C44.9311 24.291 48.7681 25.9845 53.3426 25.9845C57.7889 25.9845 59.8015 24.7276 59.8015 24.7276L58.8833 21.3803C58.8833 21.3803 56.5159 22.3983 53.9309 22.3983C51.2511 22.3983 50.0986 21.708 49.8032 19.1052H60.1938V16.4199C60.1938 10.9222 57.1273 8.85114 52.8388 8.85114L52.8389 8.85127ZM52.9636 12.203C54.7551 12.203 55.916 13.3133 55.8522 15.8883H49.8122C49.917 13.1782 51.1688 12.2032 52.9636 12.2032V12.203ZM88.2364 8.8287C82.9216 8.8287 80.1236 11.8558 80.1236 17.2804C80.1236 24.7234 84.9467 25.9214 88.2453 25.9214C93.0741 25.9214 96.2868 23.2939 96.2868 17.348C96.2868 11.1594 92.6745 8.8287 88.2364 8.8287ZM88.1695 12.7302C90.5065 12.7302 91.4326 14.4979 91.4326 16.5101V18.2401C91.4326 20.6777 90.1368 22.0876 88.1607 22.0876C86.3125 22.0876 85.0136 20.7688 85.0136 18.2401V16.5101C85.0136 13.8133 86.5592 12.7302 88.1695 12.7302ZM106.062 8.8287C100.747 8.8287 97.9495 11.8558 97.9495 17.2804C97.9495 24.7234 102.773 25.9214 106.071 25.9214C110.9 25.9214 114.113 23.2939 114.113 17.348C114.113 11.1594 110.5 8.8287 106.062 8.8287ZM105.995 12.7302C108.332 12.7302 109.258 14.4979 109.258 16.5101V18.2401C109.258 20.6777 107.963 22.0876 105.987 22.0876C104.138 22.0876 102.839 20.7688 102.839 18.2401V16.5101C102.839 13.8133 104.385 12.7302 105.995 12.7302ZM115.967 25.5908V0.938192L120.888 0.50566V17.0294L125.771 9.15577H130.968L125.875 17.3105L131.164 25.5908H125.952L120.888 17.5507V25.5908H115.967Z" fill="#EAECF0"/>
</svg>