<svg width="132" height="26" viewBox="0 0 132 26" fill="none" xmlns="http://www.w3.org/2000/svg">
<g id="Logo/Facebook">
<path id="Vector" d="M8.8425 25.5906H3.92157V13.1922H0.569336V9.15553H3.92144V6.28316C3.92144 2.87939 5.40408 0.438232 10.3117 0.438232C11.3497 0.438232 12.9792 0.649681 12.9792 0.649681V4.39794H11.2676C9.52368 4.39794 8.84276 4.93408 8.84276 6.41633V9.15553H12.9139L12.5514 13.1922H8.84263L8.8425 25.5906ZM20.1337 8.83294C20.062 8.83294 19.9882 8.83558 19.9152 8.83743C15.3522 8.83743 13.2646 12.3064 13.2646 17.2307C13.2646 23.434 15.9726 25.9167 19.9509 25.9167C22.227 25.9167 23.7224 24.9484 24.6314 23.1415V25.5923H29.3119V9.15724H24.6314V11.6847C23.8892 10.0586 22.352 8.85221 20.1337 8.83294ZM21.3238 12.7165C23.2403 12.7165 24.3906 14.0675 24.3906 16.3656L24.395 18.7128C24.395 20.2617 23.4449 22.0738 21.3238 22.0738C18.0629 22.0738 18.15 18.5151 18.15 17.3298C18.15 13.3428 19.8874 12.7165 21.3238 12.7165ZM31.2021 17.3756C31.2021 15.3785 31.1076 8.84363 39.5314 8.84363C42.9129 8.84363 44.3249 9.93031 44.3249 9.93031L43.19 13.4878C43.19 13.4878 41.7799 12.703 39.9424 12.703C37.589 12.703 36.0873 14.0819 36.0873 16.508L36.0899 18.2477C36.0899 20.5789 37.5388 22.135 39.9472 22.135C41.6212 22.135 43.1641 21.3428 43.1641 21.3428L44.296 24.8261C44.296 24.8261 43.005 25.9196 39.5551 25.9196C31.5342 25.9196 31.2022 20.0566 31.2022 17.3756H31.2021ZM71.7684 8.83743C76.3315 8.83743 78.4521 12.3064 78.4521 17.2307C78.4521 23.434 75.744 25.9167 71.7657 25.9167C69.4896 25.9167 67.807 24.9486 66.898 23.1415V25.5923L62.2764 25.5904V0.937947L67.1834 0.505415V11.4621C67.8916 9.54516 70.2191 8.83743 71.7686 8.83743H71.7684ZM70.3928 12.7165C68.4763 12.7165 67.1834 14.0675 67.1834 16.3656L67.1788 18.7128C67.1759 20.2617 68.0742 22.0738 70.3928 22.0738C73.6537 22.0738 73.5666 18.5151 73.5666 17.3298C73.5666 13.3428 71.8293 12.7165 70.3928 12.7165ZM52.8389 8.85103C47.6634 8.85103 44.9311 11.7029 44.9311 16.7711V17.7127C44.9311 24.2907 48.7681 25.9843 53.3426 25.9843C57.7889 25.9843 59.8015 24.7273 59.8015 24.7273L58.8833 21.3801C58.8833 21.3801 56.5159 22.3981 53.9309 22.3981C51.2511 22.3981 50.0986 21.7078 49.8032 19.1049H60.1938V16.4196C60.1938 10.922 57.1273 8.85089 52.8388 8.85089L52.8389 8.85103ZM52.9636 12.2028C54.7551 12.2028 55.916 13.3131 55.8522 15.8881H49.8122C49.917 13.1779 51.1688 12.2029 52.9636 12.2029V12.2028ZM88.2364 8.82845C82.9216 8.82845 80.1236 11.8555 80.1236 17.2802C80.1236 24.7231 84.9467 25.9212 88.2453 25.9212C93.0741 25.9212 96.2868 23.2937 96.2868 17.3478C96.2868 11.1591 92.6745 8.82845 88.2364 8.82845ZM88.1695 12.73C90.5065 12.73 91.4326 14.4977 91.4326 16.5099V18.2399C91.4326 20.6775 90.1368 22.0874 88.1607 22.0874C86.3125 22.0874 85.0136 20.7686 85.0136 18.2399V16.5099C85.0136 13.8131 86.5592 12.73 88.1695 12.73ZM106.062 8.82845C100.747 8.82845 97.9495 11.8555 97.9495 17.2802C97.9495 24.7231 102.773 25.9212 106.071 25.9212C110.9 25.9212 114.113 23.2937 114.113 17.3478C114.113 11.1591 110.5 8.82845 106.062 8.82845ZM105.995 12.73C108.332 12.73 109.258 14.4977 109.258 16.5099V18.2399C109.258 20.6775 107.963 22.0874 105.987 22.0874C104.138 22.0874 102.839 20.7686 102.839 18.2399V16.5099C102.839 13.8131 104.385 12.73 105.995 12.73ZM115.967 25.5906V0.937947L120.888 0.505415V17.0291L125.771 9.15553H130.968L125.875 17.3103L131.164 25.5906H125.952L120.888 17.5505V25.5906H115.967Z" fill="#EAECF0" fill-opacity="0.5"/>
</g>
</svg>
