<svg width="32" height="32" viewBox="0 0 32 32" fill="none" xmlns="http://www.w3.org/2000/svg">
<g id="fluent-mdl2:see-do">
<path id="Vector" d="M22 0C22.4167 0 22.8229 0.0625 23.2188 0.1875C23.6146 0.3125 23.9792 0.5 24.3125 0.75C24.6458 1 24.9375 1.28125 25.1875 1.59375C25.4375 1.90625 25.6354 2.27083 25.7812 2.6875L31.4531 19.6875C31.8177 20.7604 32 21.8646 32 23C32 23.9688 31.8177 24.875 31.4531 25.7188C31.0885 26.5625 30.5885 27.3021 29.9531 27.9375C29.3177 28.5729 28.5781 29.0729 27.7344 29.4375C26.8906 29.8021 25.9792 29.9896 25 30C24.0729 30 23.1823 29.8229 22.3281 29.4688C21.474 29.1146 20.7135 28.6094 20.0469 27.9531C19.3906 27.2969 18.8854 26.5417 18.5312 25.6875C18.1771 24.8333 18 23.9375 18 23V16H14V23C14 23.9271 13.8229 24.8177 13.4688 25.6719C13.1146 26.526 12.6094 27.2865 11.9531 27.9531C11.2969 28.6094 10.5417 29.1146 9.6875 29.4688C8.83333 29.8229 7.9375 30 7 30C6.03125 30 5.125 29.8177 4.28125 29.4531C3.4375 29.0885 2.69792 28.5885 2.0625 27.9531C1.42708 27.3177 0.927083 26.5781 0.5625 25.7344C0.197917 24.8906 0.0104167 23.9792 0 23C0 21.8646 0.182292 20.7604 0.546875 19.6875C0.598958 19.5417 0.71875 19.1875 0.90625 18.625C1.09375 18.0625 1.32292 17.3646 1.59375 16.5312C1.86458 15.6979 2.17188 14.7812 2.51562 13.7812C2.85938 12.7812 3.20312 11.7656 3.54688 10.7344C3.89062 9.70312 4.22396 8.70312 4.54688 7.73438C4.86979 6.76562 5.15625 5.90104 5.40625 5.14062C5.65625 4.38021 5.85417 3.77604 6 3.32812C6.14583 2.88021 6.22396 2.65104 6.23438 2.64062C6.39062 2.25521 6.59375 1.90104 6.84375 1.57812C7.09375 1.25521 7.38021 0.973958 7.70312 0.734375C8.02604 0.494792 8.38542 0.317708 8.78125 0.203125C9.17708 0.0885417 9.58333 0.0208333 10 0C10.7708 0 11.401 0.125 11.8906 0.375C12.3802 0.625 12.776 0.958333 13.0781 1.375C13.3802 1.79167 13.599 2.27604 13.7344 2.82812C13.8698 3.38021 13.9531 3.95312 13.9844 4.54688C14.0156 5.14062 14.0312 5.73438 14.0312 6.32812C14.0312 6.92188 14.0208 7.47917 14 8H18C18 7.48958 17.9948 6.9375 17.9844 6.34375C17.974 5.75 17.9792 5.15104 18 4.54688C18.0208 3.94271 18.1094 3.375 18.2656 2.84375C18.4219 2.3125 18.6354 1.82812 18.9062 1.39062C19.1771 0.953125 19.5729 0.614583 20.0938 0.375C20.6146 0.135417 21.25 0.0104167 22 0ZM7 28C7.6875 28 8.33333 27.8698 8.9375 27.6094C9.54167 27.349 10.0677 26.9896 10.5156 26.5312C10.9635 26.0729 11.3229 25.5417 11.5938 24.9375C11.8646 24.3333 12 23.6875 12 23C12 22.3125 11.8698 21.6667 11.6094 21.0625C11.349 20.4583 10.9896 19.9323 10.5312 19.4844C10.0729 19.0365 9.54167 18.6771 8.9375 18.4062C8.33333 18.1354 7.6875 18 7 18C6.3125 18 5.66667 18.1302 5.0625 18.3906C4.45833 18.651 3.93229 19.0104 3.48438 19.4688C3.03646 19.9271 2.67708 20.4583 2.40625 21.0625C2.13542 21.6667 2 22.3125 2 23C2 23.6875 2.13021 24.3333 2.39062 24.9375C2.65104 25.5417 3.01042 26.0677 3.46875 26.5156C3.92708 26.9635 4.45833 27.3229 5.0625 27.5938C5.66667 27.8646 6.3125 28 7 28ZM12 4C12 3.71875 11.9479 3.45833 11.8438 3.21875C11.7396 2.97917 11.599 2.77083 11.4219 2.59375C11.2448 2.41667 11.0312 2.27083 10.7812 2.15625C10.5312 2.04167 10.2708 1.98958 10 2C9.59375 2 9.21354 2.125 8.85938 2.375C8.50521 2.625 8.25521 2.94792 8.10938 3.34375L3.59375 16.875C4.125 16.5938 4.67708 16.3802 5.25 16.2344C5.82292 16.0885 6.40625 16.0104 7 16C7.34375 16 7.76042 16.0469 8.25 16.1406C8.73958 16.2344 9.23438 16.375 9.73438 16.5625C10.2344 16.75 10.6875 16.974 11.0938 17.2344C11.5 17.4948 11.8021 17.7865 12 18.1094V4ZM18 14V10H14V14H18ZM20 18.1094C20.1875 17.7865 20.4844 17.4948 20.8906 17.2344C21.2969 16.974 21.75 16.7552 22.25 16.5781C22.75 16.401 23.2448 16.2604 23.7344 16.1562C24.224 16.0521 24.6458 16 25 16C25.5938 16 26.1771 16.0729 26.75 16.2188C27.3229 16.3646 27.875 16.5833 28.4062 16.875L23.8906 3.34375C23.7552 2.94792 23.5104 2.625 23.1562 2.375C22.8021 2.125 22.4167 2 22 2C21.7188 2 21.4583 2.05208 21.2188 2.15625C20.9792 2.26042 20.7708 2.40104 20.5938 2.57812C20.4167 2.75521 20.2708 2.96875 20.1562 3.21875C20.0417 3.46875 19.9896 3.72917 20 4V18.1094ZM25 28C25.6875 28 26.3333 27.8698 26.9375 27.6094C27.5417 27.349 28.0677 26.9896 28.5156 26.5312C28.9635 26.0729 29.3229 25.5417 29.5938 24.9375C29.8646 24.3333 30 23.6875 30 23C30 22.3125 29.8698 21.6667 29.6094 21.0625C29.349 20.4583 28.9896 19.9323 28.5312 19.4844C28.0729 19.0365 27.5417 18.6771 26.9375 18.4062C26.3333 18.1354 25.6875 18 25 18C24.3125 18 23.6667 18.1302 23.0625 18.3906C22.4583 18.651 21.9323 19.0104 21.4844 19.4688C21.0365 19.9271 20.6771 20.4583 20.4062 21.0625C20.1354 21.6667 20 22.3125 20 23C20 23.6875 20.1302 24.3333 20.3906 24.9375C20.651 25.5417 21.0104 26.0677 21.4688 26.5156C21.9271 26.9635 22.4583 27.3229 23.0625 27.5938C23.6667 27.8646 24.3125 28 25 28Z" fill="white"/>
</g>
</svg>
