<svg width="36" height="36" viewBox="0 0 36 36" fill="none" xmlns="http://www.w3.org/2000/svg">
<g id="fluent:arrow-growth-20-filled">
<path id="Vector" d="M25.1999 4.9501C25.1999 4.59206 25.3421 4.24868 25.5953 3.9955C25.8485 3.74233 26.1918 3.6001 26.5499 3.6001H31.0499C31.4079 3.6001 31.7513 3.74233 32.0045 3.9955C32.2577 4.24868 32.3999 4.59206 32.3999 4.9501V9.4501C32.3999 9.80814 32.2577 10.1515 32.0045 10.4047C31.7513 10.6579 31.4079 10.8001 31.0499 10.8001C30.6918 10.8001 30.3485 10.6579 30.0953 10.4047C29.8421 10.1515 29.6999 9.80814 29.6999 9.4501V8.2081L21.6539 16.2541C21.4008 16.5069 21.0576 16.6489 20.6999 16.6489C20.3421 16.6489 19.999 16.5069 19.7459 16.2541L15.2999 11.8081L7.70389 19.4041C7.58029 19.5367 7.43125 19.6431 7.26565 19.7169C7.10006 19.7907 6.92129 19.8304 6.74003 19.8336C6.55876 19.8368 6.37871 19.8034 6.21061 19.7355C6.04251 19.6676 5.88981 19.5666 5.76162 19.4384C5.63342 19.3102 5.53236 19.1575 5.46447 18.9894C5.39657 18.8213 5.36322 18.6412 5.36642 18.46C5.36962 18.2787 5.40929 18.0999 5.48308 17.9343C5.55687 17.7687 5.66325 17.6197 5.79589 17.4961L14.3459 8.9461C14.599 8.69329 14.9421 8.55129 15.2999 8.55129C15.6576 8.55129 16.0008 8.69329 16.2539 8.9461L20.6999 13.3921L27.7919 6.3001H26.5499C26.1918 6.3001 25.8485 6.15787 25.5953 5.90469C25.3421 5.65152 25.1999 5.30814 25.1999 4.9501ZM6.74989 25.2001C7.10793 25.2001 7.45131 25.3423 7.70448 25.5955C7.95765 25.8487 8.09989 26.1921 8.09989 26.5501V31.0501C8.09989 31.4081 7.95765 31.7515 7.70448 32.0047C7.45131 32.2579 7.10793 32.4001 6.74989 32.4001C6.39184 32.4001 6.04847 32.2579 5.79529 32.0047C5.54212 31.7515 5.39989 31.4081 5.39989 31.0501V26.5501C5.39989 26.1921 5.54212 25.8487 5.79529 25.5955C6.04847 25.3423 6.39184 25.2001 6.74989 25.2001ZM15.2999 21.1501C15.2999 20.7921 15.1577 20.4487 14.9045 20.1955C14.6513 19.9423 14.3079 19.8001 13.9499 19.8001C13.5918 19.8001 13.2485 19.9423 12.9953 20.1955C12.7421 20.4487 12.5999 20.7921 12.5999 21.1501V31.0501C12.5999 31.4081 12.7421 31.7515 12.9953 32.0047C13.2485 32.2579 13.5918 32.4001 13.9499 32.4001C14.3079 32.4001 14.6513 32.2579 14.9045 32.0047C15.1577 31.7515 15.2999 31.4081 15.2999 31.0501V21.1501ZM21.1499 23.4001C21.5079 23.4001 21.8513 23.5423 22.1045 23.7955C22.3577 24.0487 22.4999 24.3921 22.4999 24.7501V31.0501C22.4999 31.4081 22.3577 31.7515 22.1045 32.0047C21.8513 32.2579 21.5079 32.4001 21.1499 32.4001C20.7918 32.4001 20.4485 32.2579 20.1953 32.0047C19.9421 31.7515 19.7999 31.4081 19.7999 31.0501V24.7501C19.7999 24.3921 19.9421 24.0487 20.1953 23.7955C20.4485 23.5423 20.7918 23.4001 21.1499 23.4001ZM29.6999 17.5501C29.6999 17.1921 29.5577 16.8487 29.3045 16.5955C29.0513 16.3423 28.7079 16.2001 28.3499 16.2001C27.9918 16.2001 27.6485 16.3423 27.3953 16.5955C27.1421 16.8487 26.9999 17.1921 26.9999 17.5501V31.0501C26.9999 31.4081 27.1421 31.7515 27.3953 32.0047C27.6485 32.2579 27.9918 32.4001 28.3499 32.4001C28.7079 32.4001 29.0513 32.2579 29.3045 32.0047C29.5577 31.7515 29.6999 31.4081 29.6999 31.0501V17.5501Z" fill="white"/>
</g>
</svg>
