<svg xmlns="http://www.w3.org/2000/svg" width="192" height="36" viewBox="0 0 192 36" fill="none">
  <g clip-path="url(#clip0_152_10593)">
    <path d="M12.5407 27.6361C8.48172 27.6361 5.37684 26.4766 3.2261 24.1577C1.07537 21.8387 0 18.474 0 14.0637C0 9.65526 1.07537 6.29157 3.2261 3.9726C5.37684 1.65363 8.48172 0.494141 12.5407 0.494141C16.6056 0.494141 19.6998 1.64676 21.8231 3.952C23.9465 6.25724 25.0072 9.6278 25.0052 14.0637C25.0052 18.5015 23.9445 21.873 21.8231 24.1783C19.7017 26.4835 16.6076 27.6361 12.5407 27.6361ZM12.5407 21.3649C14.5839 21.3649 16.0679 20.7822 16.9928 19.6168C17.9176 18.4515 18.378 16.6004 18.3741 14.0637C18.3741 11.5308 17.9137 9.68175 16.9928 8.51638C16.0719 7.351 14.5878 6.76832 12.5407 6.76832C10.4936 6.76832 8.99692 7.35689 8.05059 8.53403C7.10427 9.71118 6.63111 11.5544 6.63111 14.0637C6.63111 16.6004 7.10427 18.4515 8.05059 19.6168C8.99692 20.7822 10.4936 21.3649 12.5407 21.3649Z" fill="#EC4A0A"/>
    <path d="M38.681 27.5597C37.4717 27.5753 36.2848 27.2312 35.2701 26.5709C34.2612 25.9137 33.5417 24.7738 33.1116 23.1513H32.8828V34.9728H26.2546V7.60418H32.8828V11.8213H33.1116C33.5652 10.1753 34.2847 9.02852 35.2701 8.38109C36.2741 7.73058 37.4479 7.39362 38.6429 7.41289C40.9657 7.41289 42.7254 8.30654 43.9219 10.0938C45.1185 11.8811 45.7129 14.358 45.7051 17.5246C45.7051 20.6636 45.1107 23.1219 43.9219 24.8994C42.7332 26.6768 40.9862 27.5636 38.681 27.5597ZM35.7247 22.5804C36.2335 22.5911 36.7404 22.5145 37.2234 22.3538C37.6426 22.1978 38.0054 21.9189 38.2645 21.5533C38.5745 21.0891 38.7806 20.563 38.8687 20.0113C39.0091 19.1822 39.0729 18.3419 39.0593 17.501C39.074 16.6603 39.0042 15.8203 38.8511 14.9937C38.7549 14.4382 38.5485 13.9078 38.244 13.434C37.9967 13.0663 37.6392 12.787 37.2234 12.6365C36.7408 12.4735 36.2337 12.3958 35.7247 12.4069C33.8301 12.4069 32.8828 13.3575 32.8828 15.2586V19.717C32.8828 21.6259 33.8301 22.5804 35.7247 22.5804Z" fill="#EC4A0A"/>
    <path d="M49.2126 13.8753H46.7109V7.60108H49.2508V3.3457H55.8789V7.60108H58.759V13.8753H55.8789V20.0111C55.8708 20.158 55.8938 20.305 55.9462 20.4424C55.9987 20.5798 56.0794 20.7046 56.1833 20.8085C56.2871 20.9124 56.4116 20.9931 56.5487 21.0454C56.6858 21.0977 56.8323 21.1203 56.9787 21.1117H58.7971V27.3683H55.1604C53.2912 27.3683 51.8326 26.9249 50.7846 26.0381C49.7366 25.1513 49.2126 23.8339 49.2126 22.0858V13.8753Z" fill="#EC4A0A"/>
    <path d="M60.3516 0H66.9797V6.34775H60.3516V0ZM60.3516 7.60141H66.9797V27.3686H60.3516V7.60141Z" fill="#EC4A0A"/>
    <path d="M81.1482 27.6361C77.0833 27.6361 73.9774 26.4766 71.8306 24.1577C69.6838 21.8387 68.6084 18.474 68.6045 14.0637C68.6045 9.65526 69.6799 6.29157 71.8306 3.9726C73.9813 1.65363 77.0872 0.494141 81.1482 0.494141C84.8377 0.494141 87.705 1.42507 89.7501 3.28691C91.7953 5.14876 92.9567 7.85423 93.2343 11.4033H86.6061C86.3774 9.80829 85.8211 8.63605 84.9374 7.8866C84.0536 7.13716 82.7905 6.76439 81.1482 6.76832C79.105 6.76832 77.6092 7.35689 76.661 8.53403C75.7127 9.71118 75.2385 11.5603 75.2385 14.0813C75.2385 16.6181 75.7127 18.4691 76.661 19.6345C77.6092 20.7999 79.105 21.3826 81.1482 21.3826C84.384 21.3826 86.2034 19.8366 86.6061 16.7446H93.2343C92.9058 20.2937 91.7249 22.9992 89.6915 24.861C87.658 26.7229 84.8103 27.6479 81.1482 27.6361Z" fill="white"/>
    <path d="M104.115 27.5603C101.057 27.5603 98.6767 26.6676 96.9737 24.8822C95.2707 23.0969 94.4182 20.619 94.4163 17.4486C94.4163 14.2821 95.2687 11.8179 96.9737 10.0561C98.6786 8.29433 101.059 7.41147 104.115 7.40755C105.509 7.38665 106.895 7.61792 108.206 8.09029C109.367 8.51392 110.416 9.19727 111.274 10.0885C112.125 10.9931 112.774 12.0683 113.18 13.2432C113.643 14.5939 113.867 16.0149 113.843 17.4427C113.865 18.8829 113.641 20.3161 113.18 21.6804C112.779 22.8712 112.127 23.9612 111.268 24.8764C110.41 25.7667 109.361 26.449 108.201 26.8716C106.891 27.3453 105.507 27.5786 104.115 27.5603ZM104.15 21.289C106.197 21.289 107.221 20.0216 107.221 17.4868C107.221 16.1939 106.975 15.2375 106.482 14.6176C105.989 13.9976 105.21 13.6866 104.144 13.6847C103.059 13.6847 102.27 13.979 101.778 14.597C101.285 15.215 101.039 16.1684 101.039 17.4868C101.039 18.8052 101.285 19.7352 101.778 20.3561C102.27 20.9771 103.059 21.289 104.144 21.289H104.15Z" fill="white"/>
    <path d="M125.246 13.4567C125.246 12.4444 124.73 11.9353 123.695 11.9353C122.659 11.9353 122.102 12.4444 122.102 13.4567V27.3676H115.474V7.60045H122.102V11.3644H122.299C122.55 10.2974 123.094 9.32256 123.871 8.551C124.643 7.79174 125.786 7.41211 127.299 7.41211C128.636 7.41211 129.735 7.74171 130.595 8.40091C131.456 9.06011 131.885 10.0479 131.883 11.3644H132.074C132.322 10.3009 132.859 9.32715 133.625 8.551C134.384 7.79174 135.47 7.41211 136.883 7.41211C138.373 7.41211 139.546 7.88689 140.403 8.83645C141.259 9.78602 141.677 11.2751 141.655 13.3037V27.3676H135.021V13.4567C135.021 12.4444 134.502 11.9353 133.47 11.9353C132.437 11.9353 131.877 12.4444 131.877 13.4567V27.3676H125.246V13.4567Z" fill="white"/>
    <path d="M155.706 27.5597C154.497 27.5753 153.31 27.2312 152.296 26.5709C151.287 25.9137 150.567 24.7738 150.137 23.1513H149.911V34.9728H143.28V7.60418H149.911V11.8213H150.137C150.591 10.1753 151.31 9.02852 152.296 8.38109C153.3 7.73058 154.473 7.39362 155.668 7.41289C157.991 7.41289 159.751 8.30654 160.947 10.0938C162.144 11.8811 162.737 14.358 162.728 17.5246C162.728 20.6636 162.134 23.1219 160.947 24.8994C159.761 26.6768 158.014 27.5636 155.706 27.5597ZM152.753 22.5804C153.261 22.5911 153.767 22.5145 154.249 22.3538C154.668 22.1978 155.031 21.9189 155.29 21.5533C155.601 21.0894 155.808 20.5633 155.897 20.0113C156.036 19.1821 156.099 18.3418 156.085 17.501C156.099 16.6603 156.03 15.8203 155.876 14.9937C155.78 14.4388 155.574 13.9087 155.272 13.434C155.023 13.0668 154.665 12.7877 154.249 12.6365C153.767 12.4733 153.261 12.3956 152.753 12.4069C150.858 12.4069 149.911 13.3575 149.911 15.2586V19.717C149.911 21.6259 150.858 22.5804 152.753 22.5804Z" fill="white"/>
    <path d="M164.344 0H170.983V27.3686H164.344V0Z" fill="white"/>
    <path d="M172.564 7.60156H179.195V19.7673C179.195 20.7816 179.738 21.2888 180.823 21.2888C181.836 21.2888 182.455 20.7983 182.68 19.8174L185.369 7.61333H192L186.961 29.5112C186.457 31.6398 185.522 33.2554 184.158 34.358C182.793 35.4606 181.025 36.0119 178.855 36.0119H172.564L173.966 29.723H178.817C179.826 29.723 180.445 29.2326 180.673 28.2516L182.225 21.8656H182.037L180.028 25.3087C179.168 26.8037 177.855 27.5512 176.089 27.5512C174.952 27.5512 174.079 27.2471 173.473 26.6389C172.869 26.0327 172.564 25.1675 172.564 24.0168V7.60156Z" fill="white"/>
  </g>
  <defs>
    <clipPath id="clip0_152_10593">
      <rect width="192" height="36" fill="white"/>
    </clipPath>
  </defs>
</svg>