<svg width="118" height="39" viewBox="0 0 118 39" fill="none" xmlns="http://www.w3.org/2000/svg">
<path d="M15.2128 0H16.2485C19.844 0.0789992 23.3809 1.54048 25.9212 4.12771C24.9833 5.09545 24.0258 6.02369 23.1073 6.99143C21.6808 5.68794 19.9612 4.6807 18.0853 4.32521C15.3105 3.73271 12.3207 4.26596 9.99534 5.86569C7.45502 7.54443 5.73541 10.3884 5.36413 13.4299C4.95377 16.4318 5.79403 19.5918 7.72859 21.9223C9.58498 24.1935 12.4184 25.6155 15.3496 25.7143C18.0853 25.8722 20.9383 25.023 22.9315 23.0875C24.4947 21.7248 25.2178 19.6511 25.4522 17.6366C22.2084 17.6366 18.9646 17.6563 15.7208 17.6366V13.5681H29.38C30.0835 17.9328 29.0673 22.8505 25.7844 25.971C23.5959 28.183 20.567 29.4865 17.4795 29.7432C14.4898 30.0395 11.4023 29.4667 8.74472 28.0052C5.55954 26.287 3.01922 23.3838 1.76859 19.9671C0.596136 16.8268 0.576595 13.2719 1.67089 10.1119C2.66748 7.22843 4.58249 4.6807 7.04466 2.90322C9.40911 1.14549 12.2816 0.177748 15.2128 0Z" fill="#EAECF0" fill-opacity="0.5"/>
<path d="M93.5723 1.0271H97.754V29.2298C96.3666 29.2298 94.9597 29.2495 93.5723 29.21C93.5918 19.8289 93.5723 10.428 93.5723 1.0271Z" fill="#EAECF0" fill-opacity="0.5"/>
<path d="M38.6809 10.8034C41.2603 10.3096 44.0547 10.8626 46.1846 12.4228C48.1192 13.8053 49.4675 15.9778 49.8779 18.3477C50.4055 21.0929 49.7411 24.0949 47.9824 26.2673C46.0869 28.6966 42.9799 30 39.9511 29.8025C37.1762 29.6445 34.4796 28.2423 32.8381 25.9514C30.9817 23.4234 30.5323 19.9475 31.5484 16.985C32.5646 13.8053 35.4371 11.3761 38.6809 10.8034ZM39.2671 14.5558C38.2119 14.8323 37.2349 15.4445 36.5314 16.3135C34.6359 18.6045 34.7532 22.3372 36.844 24.4701C38.036 25.6946 39.8338 26.2673 41.4948 25.9316C43.0385 25.6551 44.3869 24.6084 45.1294 23.2259C46.4191 20.8757 46.0479 17.6367 44.0742 15.8C42.804 14.6151 40.9477 14.1213 39.2671 14.5558Z" fill="#EAECF0" fill-opacity="0.5"/>
<path d="M59.3925 10.8031C62.3432 10.2304 65.5675 11.0599 67.7756 13.1533C71.3712 16.4121 71.762 22.5148 68.694 26.2672C66.8376 28.6372 63.8283 29.9407 60.8581 29.8025C58.0247 29.7235 55.2303 28.3015 53.5498 25.9512C51.6543 23.364 51.2439 19.809 52.3187 16.7873C53.3934 13.7063 56.2073 11.3561 59.3925 10.8031ZM59.9788 14.5556C58.9235 14.8321 57.9465 15.4443 57.243 16.2936C55.3671 18.5451 55.4452 22.2185 57.458 24.3713C58.65 25.655 60.5064 26.287 62.226 25.9315C63.7502 25.6352 65.118 24.6083 65.8606 23.2258C67.1308 20.8558 66.7595 17.6168 64.7663 15.7801C63.4961 14.5951 61.6397 14.1211 59.9788 14.5556Z" fill="#EAECF0" fill-opacity="0.5"/>
<path d="M76.962 11.9487C79.2092 10.5267 82.199 10.1317 84.6221 11.3562C85.3842 11.692 86.0095 12.2647 86.6153 12.8375C86.6348 12.3042 86.6153 11.7512 86.6348 11.1982C87.9441 11.218 89.2533 11.1982 90.5821 11.218V28.6373C90.5625 31.264 89.8982 34.0487 88.0222 35.9644C85.9704 38.0777 82.8243 38.7294 79.9909 38.2949C76.962 37.8407 74.324 35.609 73.1515 32.7847C74.324 32.212 75.5551 31.7577 76.7666 31.2245C77.4505 32.844 78.8379 34.2265 80.5771 34.5425C82.3162 34.8585 84.329 34.424 85.4623 32.9625C86.6739 31.4615 86.6739 29.4075 86.6153 27.5708C85.7164 28.4595 84.6807 29.2495 83.4301 29.5458C80.7139 30.316 77.7241 29.368 75.6332 27.5115C73.5228 25.6551 72.2722 22.7914 72.3894 19.9474C72.448 16.7282 74.2458 13.6275 76.962 11.9487ZM81.007 14.4767C79.815 14.6742 78.7012 15.3457 77.9391 16.2739C76.1022 18.4859 76.1022 22.0211 77.9586 24.1936C79.0138 25.4773 80.7139 26.1883 82.3553 26.0106C83.8991 25.8526 85.3256 24.8651 86.0877 23.5023C87.3774 21.1916 87.1624 18.0514 85.4233 16.0369C84.3485 14.7927 82.6289 14.1805 81.007 14.4767Z" fill="#EAECF0" fill-opacity="0.5"/>
<path d="M102.773 12.9561C105.118 10.7441 108.733 9.99362 111.743 11.1589C114.596 12.2451 116.413 14.9903 117.331 17.8145C113.091 19.592 108.87 21.3497 104.63 23.1272C105.216 24.253 106.115 25.28 107.326 25.6947C109.026 26.3069 111.059 26.0897 112.485 24.9442C113.052 24.5097 113.501 23.937 113.931 23.384C115.006 24.1147 116.081 24.8257 117.156 25.5565C115.631 27.8672 113.071 29.4867 110.316 29.7434C107.268 30.1187 104.024 28.9337 102.05 26.5242C98.8065 22.7322 99.1192 16.3728 102.773 12.9561ZM104.864 16.6098C104.2 17.5775 103.926 18.7625 103.946 19.9278C106.779 18.7428 109.613 17.5578 112.446 16.3531C111.977 15.2471 110.844 14.5756 109.691 14.3978C107.834 14.0621 105.9 15.0693 104.864 16.6098Z" fill="#EAECF0" fill-opacity="0.5"/>
</svg>
