<svg xmlns="http://www.w3.org/2000/svg" width="118" height="39" viewBox="0 0 118 39" fill="none">
  <path d="M15.2128 0H16.2485C19.844 0.0789992 23.3809 1.54048 25.9212 4.12771C24.9833 5.09545 24.0258 6.02369 23.1073 6.99143C21.6808 5.68794 19.9612 4.6807 18.0853 4.32521C15.3105 3.73271 12.3207 4.26596 9.99534 5.86569C7.45502 7.54443 5.73541 10.3884 5.36413 13.4299C4.95377 16.4318 5.79403 19.5918 7.72859 21.9223C9.58498 24.1935 12.4184 25.6155 15.3496 25.7143C18.0853 25.8722 20.9383 25.023 22.9315 23.0875C24.4947 21.7248 25.2178 19.6511 25.4522 17.6366C22.2084 17.6366 18.9646 17.6563 15.7208 17.6366V13.5681H29.38C30.0835 17.9328 29.0673 22.8505 25.7844 25.971C23.5959 28.183 20.567 29.4865 17.4795 29.7432C14.4898 30.0395 11.4023 29.4667 8.74472 28.0052C5.55954 26.287 3.01922 23.3838 1.76859 19.9671C0.596136 16.8268 0.576595 13.2719 1.67089 10.1119C2.66748 7.22843 4.58249 4.6807 7.04466 2.90322C9.40911 1.14549 12.2816 0.177748 15.2128 0Z" fill="#EAECF0"/>
  <path d="M93.5725 1.02734H97.7543V29.23C96.3669 29.23 94.9599 29.2498 93.5725 29.2103C93.5921 19.8291 93.5725 10.4282 93.5725 1.02734Z" fill="#EAECF0"/>
  <path d="M38.6809 10.8031C41.2603 10.3094 44.0547 10.8624 46.1846 12.4226C48.1192 13.8051 49.4675 15.9775 49.8779 18.3475C50.4055 21.0927 49.7411 24.0946 47.9824 26.2671C46.0869 28.6963 42.9799 29.9998 39.9511 29.8023C37.1762 29.6443 34.4796 28.2421 32.8381 25.9511C30.9817 23.4232 30.5323 19.9472 31.5484 16.9848C32.5646 13.8051 35.4371 11.3759 38.6809 10.8031ZM39.2671 14.5556C38.2119 14.8321 37.2349 15.4443 36.5314 16.3133C34.6359 18.6042 34.7532 22.3369 36.844 24.4699C38.036 25.6944 39.8338 26.2671 41.4948 25.9314C43.0385 25.6549 44.3869 24.6081 45.1294 23.2257C46.4191 20.8754 46.0479 17.6365 44.0742 15.7998C42.804 14.6148 40.9477 14.1211 39.2671 14.5556Z" fill="#EAECF0"/>
  <path d="M59.3928 10.8036C62.3435 10.2309 65.5677 11.0603 67.7759 13.1538C71.3714 16.4126 71.7622 22.5153 68.6943 26.2677C66.8379 28.6377 63.8286 29.9412 60.8583 29.8029C58.0249 29.7239 55.2305 28.302 53.55 25.9517C51.6545 23.3645 51.2442 19.8095 52.3189 16.7878C53.3937 13.7068 56.2076 11.3566 59.3928 10.8036ZM59.979 14.5561C58.9238 14.8326 57.9467 15.4448 57.2433 16.2941C55.3673 18.5455 55.4455 22.219 57.4582 24.3717C58.6502 25.6555 60.5066 26.2875 62.2262 25.932C63.7504 25.6357 65.1183 24.6087 65.8608 23.2263C67.131 20.8563 66.7597 17.6173 64.7665 15.7806C63.4964 14.5956 61.64 14.1216 59.979 14.5561Z" fill="#EAECF0"/>
  <path d="M76.9623 11.9487C79.2095 10.5267 82.1992 10.1317 84.6223 11.3562C85.3844 11.692 86.0097 12.2647 86.6155 12.8375C86.635 12.3042 86.6155 11.7512 86.635 11.1982C87.9443 11.218 89.2535 11.1982 90.5823 11.218V28.6373C90.5628 31.264 89.8984 34.0487 88.0225 35.9644C85.9707 38.0777 82.8246 38.7294 79.9911 38.2949C76.9623 37.8407 74.3242 35.609 73.1518 32.7847C74.3242 32.212 75.5553 31.7577 76.7668 31.2245C77.4508 32.844 78.8382 34.2265 80.5773 34.5425C82.3165 34.8585 84.3292 34.424 85.4626 32.9625C86.6741 31.4615 86.6741 29.4075 86.6155 27.5708C85.7166 28.4595 84.6809 29.2495 83.4303 29.5458C80.7141 30.316 77.7244 29.368 75.6335 27.5115C73.523 25.6551 72.2724 22.7914 72.3897 19.9474C72.4483 16.7282 74.2461 13.6275 76.9623 11.9487ZM81.0072 14.4767C79.8152 14.6742 78.7014 15.3457 77.9393 16.2739C76.1024 18.4859 76.1024 22.0211 77.9588 24.1936C79.0141 25.4773 80.7141 26.1883 82.3556 26.0106C83.8993 25.8526 85.3258 24.8651 86.0879 23.5023C87.3776 21.1916 87.1627 18.0514 85.4235 16.0369C84.3488 14.7927 82.6291 14.1805 81.0072 14.4767Z" fill="#EAECF0"/>
  <path d="M102.773 12.9556C105.118 10.7436 108.733 9.99313 111.742 11.1584C114.595 12.2446 116.413 14.9898 117.331 17.814C113.091 19.5915 108.87 21.3493 104.63 23.1267C105.216 24.2525 106.115 25.2795 107.326 25.6942C109.026 26.3065 111.058 26.0892 112.485 24.9437C113.052 24.5092 113.501 23.9365 113.931 23.3835C115.006 24.1142 116.081 24.8252 117.155 25.556C115.631 27.8667 113.071 29.4862 110.316 29.7429C107.268 30.1182 104.024 28.9332 102.05 26.5237C98.8063 22.7317 99.119 16.3723 102.773 12.9556ZM104.864 16.6093C104.2 17.5771 103.926 18.762 103.946 19.9273C106.779 18.7423 109.612 17.5573 112.446 16.3526C111.977 15.2466 110.844 14.5751 109.691 14.3973C107.834 14.0616 105.9 15.0688 104.864 16.6093Z" fill="#EAECF0"/>
</svg>