<svg xmlns="http://www.w3.org/2000/svg" width="40" height="40" viewBox="0 0 40 40" fill="none">
  <path d="M6.66699 11.6667C6.66699 11.2246 6.84259 10.8007 7.15515 10.4882C7.46771 10.1756 7.89163 10 8.33366 10H31.667C32.109 10 32.5329 10.1756 32.8455 10.4882C33.1581 10.8007 33.3337 11.2246 33.3337 11.6667C33.3337 12.1087 33.1581 12.5326 32.8455 12.8452C32.5329 13.1577 32.109 13.3333 31.667 13.3333H8.33366C7.89163 13.3333 7.46771 13.1577 7.15515 12.8452C6.84259 12.5326 6.66699 12.1087 6.66699 11.6667ZM6.66699 20C6.66699 19.558 6.84259 19.134 7.15515 18.8215C7.46771 18.5089 7.89163 18.3333 8.33366 18.3333H31.667C32.109 18.3333 32.5329 18.5089 32.8455 18.8215C33.1581 19.134 33.3337 19.558 33.3337 20C33.3337 20.442 33.1581 20.8659 32.8455 21.1785C32.5329 21.4911 32.109 21.6667 31.667 21.6667H8.33366C7.89163 21.6667 7.46771 21.4911 7.15515 21.1785C6.84259 20.8659 6.66699 20.442 6.66699 20ZM6.66699 28.3333C6.66699 27.8913 6.84259 27.4674 7.15515 27.1548C7.46771 26.8423 7.89163 26.6667 8.33366 26.6667H31.667C32.109 26.6667 32.5329 26.8423 32.8455 27.1548C33.1581 27.4674 33.3337 27.8913 33.3337 28.3333C33.3337 28.7754 33.1581 29.1993 32.8455 29.5118C32.5329 29.8244 32.109 30 31.667 30H8.33366C7.89163 30 7.46771 29.8244 7.15515 29.5118C6.84259 29.1993 6.66699 28.7754 6.66699 28.3333Z" fill="#1D2939"/>
</svg>