<svg width="33" height="32" viewBox="0 0 33 32" fill="none" xmlns="http://www.w3.org/2000/svg">
<g id="hugeicons:in-love">
<g id="Group">
<path id="Vector" d="M17.167 2.68251C16.9449 2.67162 16.7226 2.66629 16.5003 2.66651C9.13633 2.66651 3.16699 8.63584 3.16699 15.9998C3.16699 23.3638 9.13633 29.3332 16.5003 29.3332C23.8643 29.3332 29.8337 23.3638 29.8337 15.9998C29.8337 14.8492 29.687 13.7318 29.4137 12.6665" stroke="white" stroke-width="2.5" stroke-linecap="round" stroke-linejoin="round"/>
<path id="Vector_2" d="M11.1667 20C11.7876 20.828 12.5929 21.5 13.5186 21.9628C14.4443 22.4257 15.465 22.6667 16.5 22.6667C17.535 22.6667 18.5557 22.4257 19.4814 21.9628C20.4071 21.5 21.2124 20.828 21.8333 20M13.8333 12.6667H12.1093C11.5053 12.6667 10.9267 12.9067 10.5 13.3333M19.1667 12.6667H20.8907C21.4947 12.6667 22.0733 12.9067 22.5 13.3333M21.684 3.10799C22.936 2.37732 24.028 2.67199 24.684 3.14132C24.9533 3.33332 25.088 3.42932 25.1667 3.42932C25.2467 3.42932 25.38 3.33332 25.6493 3.14132C26.3053 2.67199 27.3973 2.37732 28.6493 3.10799C30.292 4.06799 30.6627 7.23332 26.876 9.90399C26.1533 10.412 25.792 10.6667 25.1667 10.6667C24.5413 10.6667 24.18 10.4133 23.4587 9.90399C19.6707 7.23332 20.0413 4.06799 21.6853 3.10799" stroke="white" stroke-width="2.5" stroke-linecap="round" stroke-linejoin="round"/>
</g>
</g>
</svg>
