<svg width="136" height="24" viewBox="0 0 136 24" fill="none" xmlns="http://www.w3.org/2000/svg">
<path d="M8.58431 8.03784L11.1823 2.53047C11.2579 2.37108 11.3742 2.23702 11.5182 2.14333C11.6622 2.04963 11.8281 2 11.9973 2C12.1666 2 12.3325 2.04963 12.4764 2.14333C12.6204 2.23702 12.7367 2.37108 12.8123 2.53047L15.4103 8.03784L21.2183 8.92626C21.3858 8.95072 21.5435 9.02426 21.6732 9.13849C21.8029 9.25272 21.8995 9.40304 21.952 9.57229C22.0044 9.74155 22.0106 9.92291 21.9698 10.0957C21.929 10.2685 21.8429 10.4257 21.7213 10.5494L17.5193 14.8336L18.5113 20.8863C18.6383 21.6631 17.8583 22.2547 17.1913 21.8884L11.9973 19.0294L6.80231 21.8884C6.13631 22.2558 5.35631 21.6631 5.48331 20.8852L6.47531 14.8326L2.27331 10.5484C2.15229 10.4246 2.06671 10.2675 2.02627 10.095C1.98584 9.92255 1.99218 9.7416 2.04458 9.57273C2.09697 9.40387 2.19332 9.25387 2.32268 9.13977C2.45203 9.02568 2.60919 8.95207 2.77631 8.92732L8.58431 8.03784Z" fill="#FDB022" stroke="#FDB022" stroke-width="1.5" stroke-linecap="round" stroke-linejoin="round"/>
<path d="M36.5806 8.03784L39.1786 2.53047C39.2543 2.37108 39.3706 2.23702 39.5145 2.14333C39.6585 2.04963 39.8244 2 39.9936 2C40.1629 2 40.3288 2.04963 40.4728 2.14333C40.6167 2.23702 40.733 2.37108 40.8086 2.53047L43.4066 8.03784L49.2146 8.92626C49.3822 8.95072 49.5398 9.02426 49.6695 9.13849C49.7992 9.25272 49.8958 9.40304 49.9483 9.57229C50.0007 9.74155 50.0069 9.92291 49.9661 10.0957C49.9254 10.2685 49.8393 10.4257 49.7176 10.5494L45.5156 14.8336L46.5076 20.8863C46.6346 21.6631 45.8546 22.2547 45.1876 21.8884L39.9936 19.0294L34.7986 21.8884C34.1326 22.2558 33.3526 21.6631 33.4796 20.8852L34.4716 14.8326L30.2696 10.5484C30.1486 10.4246 30.063 10.2675 30.0226 10.095C29.9822 9.92255 29.9885 9.7416 30.0409 9.57273C30.0933 9.40387 30.1897 9.25387 30.319 9.13977C30.4484 9.02568 30.6055 8.95207 30.7726 8.92732L36.5806 8.03784Z" fill="#FDB022" stroke="#FDB022" stroke-width="1.5" stroke-linecap="round" stroke-linejoin="round"/>
<path d="M64.5772 8.03784L67.1752 2.53047C67.2509 2.37108 67.3672 2.23702 67.5111 2.14333C67.6551 2.04963 67.821 2 67.9902 2C68.1595 2 68.3254 2.04963 68.4693 2.14333C68.6133 2.23702 68.7296 2.37108 68.8052 2.53047L71.4032 8.03784L77.2112 8.92626C77.3788 8.95072 77.5364 9.02426 77.6661 9.13849C77.7958 9.25272 77.8924 9.40304 77.9449 9.57229C77.9973 9.74155 78.0035 9.92291 77.9627 10.0957C77.9219 10.2685 77.8358 10.4257 77.7142 10.5494L73.5122 14.8336L74.5042 20.8863C74.6312 21.6631 73.8512 22.2547 73.1842 21.8884L67.9902 19.0294L62.7952 21.8884C62.1292 22.2558 61.3492 21.6631 61.4762 20.8852L62.4682 14.8326L58.2662 10.5484C58.1452 10.4246 58.0596 10.2675 58.0192 10.095C57.9788 9.92255 57.9851 9.7416 58.0375 9.57273C58.0899 9.40387 58.1862 9.25387 58.3156 9.13977C58.4449 9.02568 58.6021 8.95207 58.7692 8.92732L64.5772 8.03784Z" fill="#FDB022" stroke="#FDB022" stroke-width="1.5" stroke-linecap="round" stroke-linejoin="round"/>
<path d="M92.5736 8.03784L95.1716 2.53047C95.2472 2.37108 95.3635 2.23702 95.5075 2.14333C95.6514 2.04963 95.8173 2 95.9866 2C96.1558 2 96.3217 2.04963 96.4657 2.14333C96.6096 2.23702 96.7259 2.37108 96.8016 2.53047L99.3996 8.03784L105.208 8.92626C105.375 8.95072 105.533 9.02426 105.662 9.13849C105.792 9.25272 105.889 9.40304 105.941 9.57229C105.994 9.74155 106 9.92291 105.959 10.0957C105.918 10.2685 105.832 10.4257 105.711 10.5494L101.509 14.8336L102.501 20.8863C102.628 21.6631 101.848 22.2547 101.181 21.8884L95.9866 19.0294L90.7916 21.8884C90.1256 22.2558 89.3456 21.6631 89.4726 20.8852L90.4646 14.8326L86.2626 10.5484C86.1416 10.4246 86.056 10.2675 86.0155 10.095C85.9751 9.92255 85.9814 9.7416 86.0338 9.57273C86.0862 9.40387 86.1826 9.25387 86.3119 9.13977C86.4413 9.02568 86.5985 8.95207 86.7656 8.92732L92.5736 8.03784Z" fill="#FDB022" stroke="#FDB022" stroke-width="1.5" stroke-linecap="round" stroke-linejoin="round"/>
<path d="M120.57 8.03784L123.168 2.53047C123.244 2.37108 123.36 2.23702 123.504 2.14333C123.648 2.04963 123.814 2 123.983 2C124.152 2 124.318 2.04963 124.462 2.14333C124.606 2.23702 124.722 2.37108 124.798 2.53047L127.396 8.03784L133.204 8.92626C133.371 8.95072 133.529 9.02426 133.659 9.13849C133.788 9.25272 133.885 9.40304 133.938 9.57229C133.99 9.74155 133.996 9.92291 133.955 10.0957C133.915 10.2685 133.829 10.4257 133.707 10.5494L129.505 14.8336L130.497 20.8863C130.624 21.6631 129.844 22.2547 129.177 21.8884L123.983 19.0294L118.788 21.8884C118.122 22.2558 117.342 21.6631 117.469 20.8852L118.461 14.8326L114.259 10.5484C114.138 10.4246 114.052 10.2675 114.012 10.095C113.971 9.92255 113.978 9.7416 114.03 9.57273C114.083 9.40387 114.179 9.25387 114.308 9.13977C114.438 9.02568 114.595 8.95207 114.762 8.92732L120.57 8.03784Z" fill="#FDB022" stroke="#FDB022" stroke-width="1.5" stroke-linecap="round" stroke-linejoin="round"/>
</svg>
