<svg xmlns="http://www.w3.org/2000/svg" width="20" height="21" viewBox="0 0 20 21" fill="none">
  <path d="M16.8609 9.45557C16.8609 14.8344 11.3517 18.1482 10.2068 18.7793C10.1434 18.8143 10.0722 18.8327 9.99974 18.8327C9.9273 18.8327 9.85605 18.8143 9.79263 18.7793C8.64688 18.1482 3.1394 14.8344 3.1394 9.45557C3.1394 5.1676 5.71219 2.16602 10.0002 2.16602C14.2881 2.16602 16.8609 5.1676 16.8609 9.45557Z" stroke="#EC4A0A" stroke-width="1.4" stroke-linecap="round" stroke-linejoin="round"/>
  <path d="M6.56982 9.02608C6.56982 9.93588 6.93124 10.8084 7.57456 11.4517C8.21788 12.095 9.09041 12.4565 10.0002 12.4565C10.91 12.4565 11.7825 12.095 12.4258 11.4517C13.0692 10.8084 13.4306 9.93588 13.4306 9.02608C13.4306 8.11629 13.0692 7.24376 12.4258 6.60044C11.7825 5.95712 10.91 5.5957 10.0002 5.5957C9.09041 5.5957 8.21788 5.95712 7.57456 6.60044C6.93124 7.24376 6.56982 8.11629 6.56982 9.02608V9.02608Z" stroke="#EC4A0A" stroke-width="1.4" stroke-linecap="round" stroke-linejoin="round"/>
</svg>