<svg xmlns="http://www.w3.org/2000/svg" width="20" height="19" viewBox="0 0 20 19" fill="none">
  <path d="M12.2507 17.1849L12.2598 17.1913C13.0468 17.6924 13.9813 17.91 14.9088 17.8082C15.8362 17.7063 16.7012 17.2911 17.3607 16.6311L17.9337 16.0582C18.0606 15.9313 18.1613 15.7806 18.2301 15.6148C18.2988 15.449 18.3342 15.2712 18.3342 15.0917C18.3342 14.9122 18.2988 14.7345 18.2301 14.5686C18.1613 14.4028 18.0606 14.2522 17.9337 14.1253L15.5171 11.7105C15.3902 11.5836 15.2396 11.4828 15.0737 11.4141C14.9079 11.3454 14.7302 11.31 14.5507 11.31C14.3712 11.31 14.1934 11.3454 14.0276 11.4141C13.8618 11.4828 13.7111 11.5836 13.5842 11.7105C13.328 11.9667 12.9805 12.1106 12.6182 12.1106C12.2559 12.1106 11.9085 11.9667 11.6522 11.7105L7.78828 7.84566C7.53214 7.58944 7.38824 7.24197 7.38824 6.87967C7.38824 6.51737 7.53214 6.16991 7.78828 5.91369C7.91525 5.7868 8.01597 5.63614 8.08469 5.47031C8.15341 5.30449 8.18878 5.12674 8.18878 4.94724C8.18878 4.76774 8.15341 4.59 8.08469 4.42417C8.01597 4.25835 7.91525 4.10768 7.78828 3.9808L5.37263 1.56606C5.1164 1.30991 4.76894 1.16602 4.40664 1.16602C4.04434 1.16602 3.69687 1.30991 3.44065 1.56606L2.8668 2.139C2.20695 2.79864 1.79189 3.66366 1.6902 4.59112C1.58851 5.51858 1.80627 6.45298 2.30752 7.23993L2.31298 7.24904C4.96016 11.1656 8.33361 14.5385 12.2507 17.1849V17.1849Z" stroke="#EC4A0A" stroke-width="1.4" stroke-linecap="round" stroke-linejoin="round"/>
</svg>