<svg width="140" height="35" viewBox="0 0 140 35" fill="none" xmlns="http://www.w3.org/2000/svg">
<path id="Logo/Pinterest" d="M15.232 0.446884C13.4351 0.650421 10.7396 1.49588 9.20596 2.34134C5.0853 4.58024 2.29688 8.07168 0.902675 12.7217C0.623833 13.6298 0.298518 16.1035 0.314009 17.2621C0.314009 18.2798 0.623833 20.7692 0.809728 21.3642C0.902675 21.646 1.10406 22.3192 1.27446 22.8359C1.55331 23.7127 2.90104 26.4683 3.13341 26.6561C3.17988 26.7031 3.42774 27.0162 3.66011 27.3763C4.23328 28.2375 5.73593 29.7718 6.86679 30.6486C7.73429 31.3218 10.1819 32.7466 10.4917 32.7622C10.5692 32.7622 10.5847 32.1673 10.5382 31.3844C10.4298 29.6466 10.7551 27.2824 11.4522 24.8713C11.5761 24.4642 11.6691 23.9319 11.6691 23.697C11.6691 23.4622 11.731 23.2117 11.8085 23.1334C11.8859 23.0394 12.0254 22.5854 12.1028 22.1157C12.1958 21.646 12.3507 20.9258 12.4591 20.5187C12.614 19.9081 12.5985 19.6733 12.3817 19.0157C12.0718 18.0137 12.0563 16.3854 12.3662 15.6025C13.0942 13.7394 13.8998 13.0348 15.263 13.0348C16.9051 13.0348 17.6951 14.2874 17.3853 16.3854C17.2459 17.3404 16.8586 18.8435 16.6108 19.3132C16.5488 19.4541 16.4403 19.8455 16.3939 20.1743C16.3319 20.5187 16.208 21.0041 16.1305 21.2702C15.9136 21.8809 16.3319 23.0708 16.8896 23.5248C17.4163 23.9475 18.5162 24.0728 19.5231 23.8379C20.2357 23.6814 20.53 23.4935 21.2736 22.7733C22.1566 21.8965 22.8227 20.8788 22.8227 20.3935C22.8227 20.2526 22.9002 20.0647 22.9931 19.9707C23.4269 19.5324 23.6592 16.1192 23.3339 14.6788C22.9776 13.0975 21.8778 11.5475 20.4526 10.6394C19.0274 9.71563 16.0841 9.44946 14.2716 10.0757C13.0013 10.5141 11.8704 11.25 11.1424 12.1111C10.4917 12.8783 9.81011 14.1308 9.81011 14.5692C9.81011 14.7258 9.73266 14.9293 9.63971 15.0232C9.54676 15.1172 9.43833 15.7121 9.39185 16.3541C9.3144 17.3091 9.37636 17.7475 9.6552 18.6869C9.8411 19.3288 10.1819 20.0803 10.3833 20.3622C10.8015 20.9258 10.8016 21.145 10.4143 22.648C10.3058 23.0551 10.1199 23.4309 10.0115 23.4778C9.03555 23.8536 7.05268 21.4894 6.38656 19.1409C6.1387 18.2485 6.12321 15.0702 6.37107 14.1308C6.47951 13.7394 6.6654 13.2071 6.78933 12.9252C6.91326 12.6591 7.0217 12.3929 7.0217 12.3303C7.0217 12.2677 7.33152 11.7353 7.7188 11.156C9.73266 8.08734 13.0013 6.45904 17.1375 6.45904C18.0824 6.45904 19.0584 6.52167 19.3217 6.59995C21.4595 7.27319 22.0327 7.49238 22.8692 7.9934C24.4958 8.97977 25.6731 10.3262 26.8504 12.5808C26.9279 12.7217 27.0363 13.0975 27.0828 13.4106C27.1448 13.7237 27.2532 14.0212 27.3307 14.0682C27.4081 14.1151 27.4701 15.1328 27.4701 16.3384C27.4701 18.5147 27.3152 19.3914 26.6645 21.1763C25.9365 23.1334 24.062 25.294 22.358 26.1395C21.382 26.6092 19.5541 27.1258 18.826 27.1258C17.85 27.1258 15.9291 26.3117 15.4024 25.6541C15.1546 25.3566 14.9222 25.4662 14.9222 25.889C14.9222 26.0455 14.8602 26.3117 14.7673 26.4683C14.6898 26.6092 14.5504 27.0476 14.473 27.439C14.0237 29.5057 13.3886 31.1809 12.4126 32.7466C12.1183 33.2319 12.3662 33.5138 13.1717 33.6234C13.5745 33.686 14.1167 33.7956 14.3645 33.8739C14.9842 34.0774 18.3458 34.0461 19.4766 33.8425C20.499 33.6547 22.1566 33.185 22.9002 32.8718C27.5785 30.9304 31.126 26.9849 32.6596 21.9591C33.4807 19.2819 33.5271 16.1662 32.7836 13.0348C32.5357 12.0172 32.4582 11.7823 31.7921 10.2166C30.8317 7.93077 28.6629 5.25348 26.4632 3.60953C24.5732 2.20043 22.7143 1.38628 19.8174 0.681734C19.0119 0.493854 16.146 0.337287 15.232 0.446884ZM56.5471 6.09894C55.9429 6.19288 54.9824 7.19491 54.7346 7.97774C54.4712 8.83886 54.7346 9.7626 55.4782 10.4828C57.1202 12.0954 59.9706 10.5767 59.6143 8.25956C59.3974 6.78783 58.0652 5.84843 56.5471 6.09894ZM39.6617 7.02268C39.5222 7.17925 39.5222 26.0612 39.6771 26.2804C39.7546 26.4056 40.4207 26.4526 41.722 26.4369L43.6584 26.4213L43.7358 23.243C43.7978 20.6596 43.8598 20.0334 44.0457 19.9238C44.1696 19.8455 45.223 19.7672 46.3848 19.7672C48.9254 19.7672 49.9943 19.5793 51.1561 18.9531C52.6743 18.1233 53.5573 16.9333 54.0375 15.0389C54.3318 13.849 54.3318 12.9879 54.022 11.7667C53.7432 10.6707 53.6192 10.4045 52.9531 9.51209C52.1321 8.40047 51.2955 7.78986 49.9323 7.3045C49.1733 7.054 48.5381 7.00703 44.4329 6.96006C41.8769 6.92874 39.7236 6.96006 39.6617 7.02268ZM48.1663 10.9212C49.2042 11.25 49.7154 11.7197 49.9478 12.5651C50.2421 13.6768 50.0253 14.7101 49.3746 15.3364C48.662 16.0096 48.0269 16.1662 45.9511 16.1662C44.5879 16.1662 44.1696 16.1192 43.9837 15.9157C43.7823 15.7278 43.7358 15.2737 43.7358 13.4889C43.7358 10.6707 43.7203 10.6863 45.8736 10.6863C46.8031 10.6863 47.7016 10.7803 48.1663 10.9212ZM75.3379 9.99745C75.3379 11.0778 75.2604 12.0954 75.183 12.2677C75.0745 12.4712 74.8577 12.5651 74.4859 12.5651C74.207 12.5651 73.9437 12.6278 73.9127 12.7217C73.8972 12.8 73.8972 13.348 73.9437 13.9273C74.0211 14.9606 74.0366 14.9763 74.5014 15.0859C74.7647 15.1328 75.059 15.2268 75.152 15.2894C75.2914 15.3677 75.3379 16.6046 75.3379 19.7359C75.3379 23.9475 75.3534 24.1041 75.6942 24.7304C76.4068 26.0612 77.5221 26.5309 79.7839 26.4683L81.302 26.4213L81.3485 24.9026L81.3949 23.3682H81.0077C80.419 23.3682 79.5515 22.8985 79.4585 22.5228C79.4121 22.3349 79.3656 20.6753 79.3656 18.8122C79.3656 16.2445 79.4121 15.3833 79.567 15.2581C79.6754 15.1641 80.1092 15.0702 80.5274 15.0389L81.302 14.9919V12.6434L80.45 12.5965C79.9852 12.5651 79.5515 12.4555 79.4895 12.3616C79.4276 12.252 79.3656 11.2343 79.3656 10.0914V8.02471H75.3379V9.99745ZM132.919 8.11865C132.857 8.18128 132.81 9.16765 132.81 10.3106C132.81 12.5338 132.795 12.5651 131.943 12.5651C131.555 12.5651 131.555 12.5808 131.602 13.7707C131.648 14.9606 131.664 14.9919 132.067 15.0389C132.284 15.0702 132.547 15.1798 132.624 15.2737C132.717 15.3833 132.81 17.2778 132.857 19.6889C132.903 22.0061 132.981 24.1198 133.043 24.3703C133.229 25.0592 134.189 25.9359 135.103 26.2334C136.125 26.5779 138.728 26.6092 138.991 26.2804C139.115 26.1395 139.162 25.5758 139.131 24.7617L139.084 23.4465L138.542 23.3526C137.953 23.2586 137.287 22.9455 137.117 22.6793C137.055 22.5854 136.993 20.8788 136.993 18.8904C136.993 14.804 136.9 15.0702 138.248 15.0702C139.131 15.0702 139.208 14.9136 139.131 13.4889L139.084 12.6434L138.077 12.5651L137.07 12.4869L136.993 10.2949L136.915 8.10299L134.964 8.05602C133.895 8.04037 132.981 8.07168 132.919 8.11865ZM67.6697 12.1894C66.9107 12.3929 66.0277 12.9096 65.439 13.5202C64.7264 14.2717 64.5405 14.2247 64.4631 13.2697L64.4166 12.6434H60.5438V26.4213L62.4957 26.4526C64.4166 26.4996 64.4631 26.4839 64.556 26.1395C64.6025 25.9516 64.649 23.9632 64.649 21.7086C64.649 17.2465 64.6645 17.1212 65.5784 16.2445C65.9812 15.853 66.1981 15.7748 67.0656 15.7278L68.0725 15.6652L68.6767 16.3071C69.3893 17.0586 69.3118 16.3384 69.3738 22.8203C69.3893 24.5425 69.4048 26.0612 69.4202 26.2178C69.4512 26.4369 69.6991 26.4683 71.4341 26.4369L73.4015 26.4213V15.4303L72.9522 14.5379C72.1777 12.9879 70.9849 12.252 69.1569 12.1581C68.5063 12.1424 67.8401 12.1424 67.6697 12.1894ZM87.0337 12.1894C85.3607 12.6434 84.5552 13.0975 83.5172 14.1308C82.123 15.5556 81.4879 17.2152 81.4879 19.4541C81.5034 23.3839 83.9355 26.296 87.5295 26.6405C90.5967 26.938 92.9669 26.0299 94.485 23.9788C94.7019 23.6814 95.1666 22.7263 95.1666 22.5541C95.1666 22.4915 94.2681 22.4288 93.1838 22.4288H91.2009L90.7361 22.9142C90.194 23.4778 89.4349 23.8379 88.7378 23.8379C88.0407 23.8379 86.9718 23.3369 86.4761 22.8046C86.1043 22.3819 85.5621 21.1607 85.5621 20.7379C85.5621 20.597 86.6929 20.55 90.3334 20.55C92.9514 20.55 95.1666 20.4874 95.2751 20.4248C95.5074 20.2682 95.2906 17.7788 94.9497 16.8707C94.2526 14.9763 92.9359 13.3793 91.6037 12.8156C91.2164 12.6591 90.7671 12.4555 90.6122 12.3773C90.2869 12.205 87.5295 12.0641 87.0337 12.1894ZM90.0545 15.6182C90.6587 16.0409 91.1854 17.0429 91.1079 17.6066C91.0615 17.9667 91.0305 17.9667 88.4125 18.0137C85.3917 18.0606 85.3762 18.045 85.8564 16.9177C86.1972 16.1349 86.8788 15.4303 87.514 15.2268C88.2421 14.9919 89.4194 15.1798 90.0545 15.6182ZM109.961 12.1894C108.164 12.6747 106.909 13.4732 105.933 14.7101C105.546 15.2111 105.236 15.6808 105.236 15.7748C105.236 15.853 105.127 16.1349 104.988 16.401C104.849 16.6515 104.647 17.4344 104.539 18.1389C103.997 21.4894 105.484 24.6208 108.272 26.0299L109.341 26.5779H111.587C113.911 26.5779 114.112 26.5309 115.538 25.7637C116.575 25.2001 118.279 23.0081 118.016 22.5697C117.954 22.4915 117.071 22.4288 116.033 22.4288H114.128L113.741 22.8829C112.191 24.6521 109.295 23.744 108.675 21.2859C108.582 20.9571 108.582 20.6753 108.659 20.6127C108.737 20.5657 110.952 20.5344 113.601 20.55C117.381 20.55 118.403 20.5187 118.419 20.3622C118.558 18.4051 117.629 15.5086 116.467 14.2561C115.816 13.5515 114.686 12.7687 114.128 12.6278C113.88 12.5651 113.601 12.4555 113.493 12.3773C113.276 12.205 110.441 12.0641 109.961 12.1894ZM112.377 15.2424C113.074 15.4929 113.88 16.3697 114.004 17.0429C114.19 18.0606 114.205 18.0606 111.324 18.0137C108.737 17.9667 108.721 17.9667 108.675 17.6066C108.613 17.1682 109.155 16.0879 109.62 15.6808C110.286 15.1172 111.448 14.9293 112.377 15.2424ZM123.438 12.1894C120.262 12.9566 119.116 14.0995 119.101 16.4793C119.101 19.047 120.371 20.1273 124.135 20.8005C126.722 21.2546 127.466 21.6617 127.435 22.648C127.419 23.3526 126.939 23.8066 125.979 24.0102C124.77 24.2763 123.825 23.9788 123.066 23.1177L122.462 22.4288H120.588C119.07 22.4288 118.713 22.4758 118.713 22.648C118.713 23.1021 119.333 24.292 119.844 24.8869C120.324 25.4036 120.696 25.6541 122.152 26.3587C122.292 26.4369 123.051 26.5622 123.81 26.6561C125.22 26.8284 127.667 26.6718 128.287 26.3587C128.426 26.296 128.829 26.0925 129.17 25.9359C130.053 25.5132 130.889 24.5581 131.199 23.6501C131.54 22.6167 131.447 21.1763 130.967 20.1743C130.394 19 128.875 18.1546 126.614 17.7475C123.701 17.2308 123.655 17.2152 123.19 16.7611C122.633 16.1818 122.633 15.9783 123.19 15.352C123.639 14.851 123.67 14.8354 124.91 14.8354C126.149 14.8354 126.18 14.851 126.629 15.352C126.877 15.6338 127.078 15.9626 127.078 16.0879C127.078 16.2758 127.404 16.3227 129.015 16.3227C131.153 16.3227 131.091 16.3697 130.719 15.2581C130.037 13.2853 128.287 12.2833 125.374 12.1737C124.476 12.1424 123.608 12.1424 123.438 12.1894ZM102.835 12.5182C102.153 12.753 101.208 13.5359 100.914 14.0995C100.62 14.6631 100.356 14.4283 100.279 13.4889L100.201 12.6434H96.3285L96.282 19.2192C96.2665 22.8359 96.282 25.9516 96.3285 26.1551C96.4059 26.4996 96.4524 26.4996 98.3113 26.4683C99.3802 26.4526 100.248 26.3587 100.31 26.2647C100.372 26.1864 100.434 24.5268 100.434 22.5854C100.434 19.5167 100.465 18.9687 100.728 18.2798C101.27 16.8551 102.432 16.0096 103.888 16.0096C104.291 16.0096 104.461 15.9313 104.508 15.7278C104.616 15.2737 104.632 13.1601 104.539 12.6904C104.446 12.3146 104.368 12.252 103.95 12.2677C103.671 12.2833 103.176 12.3929 102.835 12.5182ZM55.1219 12.753C55.0754 12.8626 55.0599 15.947 55.0754 19.6106L55.1219 26.2647L56.9653 26.343C58.0807 26.39 58.8862 26.3587 59.0102 26.2647C59.1806 26.1395 59.227 24.8087 59.227 19.4854C59.2425 15.853 59.1961 12.8 59.1496 12.7217C58.9947 12.4869 55.1993 12.5182 55.1219 12.753Z" fill="#EAECF0" fill-opacity="0.5"/>
</svg>
