<svg xmlns="http://www.w3.org/2000/svg" width="140" height="35" viewBox="0 0 140 35" fill="none">
  <path d="M15.232 0.447372C13.4351 0.650909 10.7396 1.49637 9.20596 2.34183C5.0853 4.58073 2.29688 8.07217 0.902675 12.7222C0.623833 13.6303 0.298518 16.104 0.314009 17.2626C0.314009 18.2803 0.623833 20.7697 0.809728 21.3647C0.902675 21.6465 1.10406 22.3197 1.27446 22.8364C1.55331 23.7132 2.90104 26.4687 3.13341 26.6566C3.17988 26.7036 3.42774 27.0167 3.66011 27.3768C4.23328 28.238 5.73593 29.7723 6.86679 30.6491C7.73429 31.3223 10.1819 32.7471 10.4917 32.7627C10.5692 32.7627 10.5847 32.1678 10.5382 31.3849C10.4298 29.647 10.7551 27.2829 11.4522 24.8718C11.5761 24.4647 11.6691 23.9324 11.6691 23.6975C11.6691 23.4627 11.731 23.2122 11.8085 23.1339C11.8859 23.0399 12.0254 22.5859 12.1028 22.1162C12.1958 21.6465 12.3507 20.9263 12.4591 20.5192C12.614 19.9086 12.5985 19.6738 12.3817 19.0162C12.0718 18.0141 12.0563 16.3859 12.3662 15.603C13.0942 13.7399 13.8998 13.0353 15.263 13.0353C16.9051 13.0353 17.6951 14.2879 17.3853 16.3859C17.2459 17.3409 16.8586 18.844 16.6108 19.3137C16.5488 19.4546 16.4403 19.846 16.3939 20.1748C16.3319 20.5192 16.208 21.0046 16.1305 21.2707C15.9136 21.8813 16.3319 23.0713 16.8896 23.5253C17.4163 23.948 18.5162 24.0733 19.5231 23.8384C20.2357 23.6819 20.53 23.494 21.2736 22.7738C22.1566 21.897 22.8227 20.8793 22.8227 20.394C22.8227 20.253 22.9002 20.0652 22.9931 19.9712C23.4269 19.5328 23.6592 16.1197 23.3339 14.6793C22.9776 13.098 21.8778 11.5479 20.4526 10.6399C19.0274 9.71612 16.0841 9.44995 14.2716 10.0762C13.0013 10.5146 11.8704 11.2505 11.1424 12.1116C10.4917 12.8788 9.81011 14.1313 9.81011 14.5697C9.81011 14.7262 9.73266 14.9298 9.63971 15.0237C9.54676 15.1177 9.43833 15.7126 9.39185 16.3545C9.3144 17.3096 9.37636 17.748 9.6552 18.6874C9.8411 19.3293 10.1819 20.0808 10.3833 20.3626C10.8015 20.9263 10.8016 21.1455 10.4143 22.6485C10.3058 23.0556 10.1199 23.4314 10.0115 23.4783C9.03555 23.8541 7.05268 21.4899 6.38656 19.1414C6.1387 18.249 6.12321 15.0707 6.37107 14.1313C6.47951 13.7399 6.6654 13.2076 6.78933 12.9257C6.91326 12.6596 7.0217 12.3934 7.0217 12.3308C7.0217 12.2682 7.33152 11.7358 7.7188 11.1565C9.73266 8.08782 13.0013 6.45953 17.1375 6.45953C18.0824 6.45953 19.0584 6.52216 19.3217 6.60044C21.4595 7.27368 22.0327 7.49287 22.8692 7.99388C24.4958 8.98025 25.6731 10.3267 26.8504 12.5813C26.9279 12.7222 27.0363 13.098 27.0828 13.4111C27.1448 13.7242 27.2532 14.0217 27.3307 14.0687C27.4081 14.1156 27.4701 15.1333 27.4701 16.3389C27.4701 18.5152 27.3152 19.3919 26.6645 21.1768C25.9365 23.1339 24.062 25.2945 22.358 26.14C21.382 26.6097 19.5541 27.1263 18.826 27.1263C17.85 27.1263 15.9291 26.3122 15.4024 25.6546C15.1546 25.3571 14.9222 25.4667 14.9222 25.8895C14.9222 26.046 14.8602 26.3122 14.7673 26.4687C14.6898 26.6097 14.5504 27.048 14.473 27.4395C14.0237 29.5061 13.3886 31.1814 12.4126 32.7471C12.1183 33.2324 12.3662 33.5142 13.1717 33.6238C13.5745 33.6865 14.1167 33.7961 14.3645 33.8743C14.9842 34.0779 18.3458 34.0466 19.4766 33.843C20.499 33.6552 22.1566 33.1855 22.9002 32.8723C27.5785 30.9309 31.126 26.9854 32.6596 21.9596C33.4807 19.2823 33.5271 16.1667 32.7836 13.0353C32.5357 12.0176 32.4582 11.7828 31.7921 10.2171C30.8317 7.93126 28.6629 5.25397 26.4632 3.61002C24.5732 2.20092 22.7143 1.38677 19.8174 0.682222C19.0119 0.494342 16.146 0.337776 15.232 0.447372ZM56.5471 6.09943C55.9429 6.19337 54.9824 7.19539 54.7346 7.97823C54.4712 8.83934 54.7346 9.76309 55.4782 10.4833C57.1202 12.0959 59.9706 10.5772 59.6143 8.26005C59.3974 6.78832 58.0652 5.84892 56.5471 6.09943ZM39.6617 7.02317C39.5222 7.17974 39.5222 26.0617 39.6771 26.2809C39.7546 26.4061 40.4207 26.4531 41.722 26.4374L43.6584 26.4218L43.7358 23.2435C43.7978 20.6601 43.8598 20.0339 44.0457 19.9243C44.1696 19.846 45.223 19.7677 46.3848 19.7677C48.9254 19.7677 49.9943 19.5798 51.1561 18.9535C52.6743 18.1237 53.5573 16.9338 54.0375 15.0394C54.3318 13.8495 54.3318 12.9884 54.022 11.7671C53.7432 10.6712 53.6192 10.405 52.9531 9.51258C52.1321 8.40096 51.2955 7.79035 49.9323 7.30499C49.1733 7.05448 48.5381 7.00751 44.4329 6.96054C41.8769 6.92923 39.7236 6.96054 39.6617 7.02317ZM48.1663 10.9217C49.2042 11.2505 49.7154 11.7202 49.9478 12.5656C50.2421 13.6773 50.0253 14.7106 49.3746 15.3369C48.662 16.0101 48.0269 16.1667 45.9511 16.1667C44.5879 16.1667 44.1696 16.1197 43.9837 15.9162C43.7823 15.7283 43.7358 15.2742 43.7358 13.4894C43.7358 10.6712 43.7203 10.6868 45.8736 10.6868C46.8031 10.6868 47.7016 10.7808 48.1663 10.9217ZM75.3379 9.99794C75.3379 11.0782 75.2604 12.0959 75.183 12.2682C75.0745 12.4717 74.8577 12.5656 74.4859 12.5656C74.207 12.5656 73.9437 12.6283 73.9127 12.7222C73.8972 12.8005 73.8972 13.3485 73.9437 13.9278C74.0211 14.9611 74.0366 14.9768 74.5014 15.0864C74.7647 15.1333 75.059 15.2273 75.152 15.2899C75.2914 15.3682 75.3379 16.605 75.3379 19.7364C75.3379 23.948 75.3534 24.1046 75.6942 24.7309C76.4068 26.0617 77.5221 26.5314 79.7839 26.4687L81.302 26.4218L81.3485 24.9031L81.3949 23.3687H81.0077C80.419 23.3687 79.5515 22.899 79.4585 22.5233C79.4121 22.3354 79.3656 20.6758 79.3656 18.8126C79.3656 16.2449 79.4121 15.3838 79.567 15.2586C79.6754 15.1646 80.1092 15.0707 80.5274 15.0394L81.302 14.9924V12.6439L80.45 12.5969C79.9852 12.5656 79.5515 12.456 79.4895 12.3621C79.4276 12.2525 79.3656 11.2348 79.3656 10.0919V8.0252H75.3379V9.99794ZM132.919 8.11914C132.857 8.18176 132.81 9.16813 132.81 10.3111C132.81 12.5343 132.795 12.5656 131.943 12.5656C131.555 12.5656 131.555 12.5813 131.602 13.7712C131.648 14.9611 131.664 14.9924 132.067 15.0394C132.284 15.0707 132.547 15.1803 132.624 15.2742C132.717 15.3838 132.81 17.2783 132.857 19.6894C132.903 22.0066 132.981 24.1202 133.043 24.3708C133.229 25.0596 134.189 25.9364 135.103 26.2339C136.125 26.5783 138.728 26.6097 138.991 26.2809C139.115 26.14 139.162 25.5763 139.131 24.7622L139.084 23.447L138.542 23.3531C137.953 23.2591 137.287 22.946 137.117 22.6798C137.055 22.5859 136.993 20.8793 136.993 18.8909C136.993 14.8045 136.9 15.0707 138.248 15.0707C139.131 15.0707 139.208 14.9141 139.131 13.4894L139.084 12.6439L138.077 12.5656L137.07 12.4873L136.993 10.2954L136.915 8.10348L134.964 8.05651C133.895 8.04085 132.981 8.07217 132.919 8.11914ZM67.6697 12.1899C66.9107 12.3934 66.0277 12.9101 65.439 13.5207C64.7264 14.2722 64.5405 14.2252 64.4631 13.2702L64.4166 12.6439H60.5438V26.4218L62.4957 26.4531C64.4166 26.5001 64.4631 26.4844 64.556 26.14C64.6025 25.9521 64.649 23.9637 64.649 21.7091C64.649 17.247 64.6645 17.1217 65.5784 16.2449C65.9812 15.8535 66.1981 15.7752 67.0656 15.7283L68.0725 15.6656L68.6767 16.3076C69.3893 17.0591 69.3118 16.3389 69.3738 22.8207C69.3893 24.543 69.4048 26.0617 69.4202 26.2182C69.4512 26.4374 69.6991 26.4687 71.4341 26.4374L73.4015 26.4218V15.4308L72.9522 14.5384C72.1777 12.9884 70.9849 12.2525 69.1569 12.1586C68.5063 12.1429 67.8401 12.1429 67.6697 12.1899ZM87.0337 12.1899C85.3607 12.6439 84.5552 13.098 83.5172 14.1313C82.123 15.5561 81.4879 17.2157 81.4879 19.4546C81.5034 23.3844 83.9355 26.2965 87.5295 26.641C90.5967 26.9384 92.9669 26.0304 94.485 23.9793C94.7019 23.6819 95.1666 22.7268 95.1666 22.5546C95.1666 22.492 94.2681 22.4293 93.1838 22.4293H91.2009L90.7361 22.9147C90.194 23.4783 89.4349 23.8384 88.7378 23.8384C88.0407 23.8384 86.9718 23.3374 86.4761 22.8051C86.1043 22.3824 85.5621 21.1611 85.5621 20.7384C85.5621 20.5975 86.6929 20.5505 90.3334 20.5505C92.9514 20.5505 95.1666 20.4879 95.2751 20.4253C95.5074 20.2687 95.2906 17.7793 94.9497 16.8712C94.2526 14.9768 92.9359 13.3798 91.6037 12.8161C91.2164 12.6596 90.7671 12.456 90.6122 12.3777C90.2869 12.2055 87.5295 12.0646 87.0337 12.1899ZM90.0545 15.6187C90.6587 16.0414 91.1854 17.0434 91.1079 17.6071C91.0615 17.9672 91.0305 17.9672 88.4125 18.0141C85.3917 18.0611 85.3762 18.0455 85.8564 16.9182C86.1972 16.1353 86.8788 15.4308 87.514 15.2273C88.2421 14.9924 89.4194 15.1803 90.0545 15.6187ZM109.961 12.1899C108.164 12.6752 106.909 13.4737 105.933 14.7106C105.546 15.2116 105.236 15.6813 105.236 15.7752C105.236 15.8535 105.127 16.1353 104.988 16.4015C104.849 16.652 104.647 17.4349 104.539 18.1394C103.997 21.4899 105.484 24.6213 108.272 26.0304L109.341 26.5783H111.587C113.911 26.5783 114.112 26.5314 115.538 25.7642C116.575 25.2006 118.279 23.0086 118.016 22.5702C117.954 22.492 117.071 22.4293 116.033 22.4293H114.128L113.741 22.8834C112.191 24.6526 109.295 23.7445 108.675 21.2864C108.582 20.9576 108.582 20.6758 108.659 20.6132C108.737 20.5662 110.952 20.5349 113.601 20.5505C117.381 20.5505 118.403 20.5192 118.419 20.3626C118.558 18.4056 117.629 15.5091 116.467 14.2565C115.816 13.552 114.686 12.7692 114.128 12.6283C113.88 12.5656 113.601 12.456 113.493 12.3777C113.276 12.2055 110.441 12.0646 109.961 12.1899ZM112.377 15.2429C113.074 15.4934 113.88 16.3702 114.004 17.0434C114.19 18.0611 114.205 18.0611 111.324 18.0141C108.737 17.9672 108.721 17.9672 108.675 17.6071C108.613 17.1687 109.155 16.0884 109.62 15.6813C110.286 15.1177 111.448 14.9298 112.377 15.2429ZM123.438 12.1899C120.262 12.957 119.116 14.1 119.101 16.4798C119.101 19.0475 120.371 20.1278 124.135 20.801C126.722 21.2551 127.466 21.6622 127.435 22.6485C127.419 23.3531 126.939 23.8071 125.979 24.0107C124.77 24.2768 123.825 23.9793 123.066 23.1182L122.462 22.4293H120.588C119.07 22.4293 118.713 22.4763 118.713 22.6485C118.713 23.1026 119.333 24.2925 119.844 24.8874C120.324 25.4041 120.696 25.6546 122.152 26.3592C122.292 26.4374 123.051 26.5627 123.81 26.6566C125.22 26.8288 127.667 26.6723 128.287 26.3592C128.426 26.2965 128.829 26.093 129.17 25.9364C130.053 25.5137 130.889 24.5586 131.199 23.6505C131.54 22.6172 131.447 21.1768 130.967 20.1748C130.394 19.0005 128.875 18.1551 126.614 17.748C123.701 17.2313 123.655 17.2157 123.19 16.7616C122.633 16.1823 122.633 15.9788 123.19 15.3525C123.639 14.8515 123.67 14.8358 124.91 14.8358C126.149 14.8358 126.18 14.8515 126.629 15.3525C126.877 15.6343 127.078 15.9631 127.078 16.0884C127.078 16.2763 127.404 16.3232 129.015 16.3232C131.153 16.3232 131.091 16.3702 130.719 15.2586C130.037 13.2858 128.287 12.2838 125.374 12.1742C124.476 12.1429 123.608 12.1429 123.438 12.1899ZM102.835 12.5187C102.153 12.7535 101.208 13.5363 100.914 14.1C100.62 14.6636 100.356 14.4288 100.279 13.4894L100.201 12.6439H96.3285L96.282 19.2197C96.2665 22.8364 96.282 25.9521 96.3285 26.1556C96.4059 26.5001 96.4524 26.5001 98.3113 26.4687C99.3802 26.4531 100.248 26.3592 100.31 26.2652C100.372 26.1869 100.434 24.5273 100.434 22.5859C100.434 19.5172 100.465 18.9692 100.728 18.2803C101.27 16.8556 102.432 16.0101 103.888 16.0101C104.291 16.0101 104.461 15.9318 104.508 15.7283C104.616 15.2742 104.632 13.1606 104.539 12.6909C104.446 12.3151 104.368 12.2525 103.95 12.2682C103.671 12.2838 103.176 12.3934 102.835 12.5187ZM55.1219 12.7535C55.0754 12.8631 55.0599 15.9475 55.0754 19.6111L55.1219 26.2652L56.9653 26.3435C58.0807 26.3905 58.8862 26.3592 59.0102 26.2652C59.1806 26.14 59.227 24.8091 59.227 19.4859C59.2425 15.8535 59.1961 12.8005 59.1496 12.7222C58.9947 12.4873 55.1993 12.5187 55.1219 12.7535Z" fill="#EAECF0"/>
</svg>