<svg width="244" height="36" viewBox="0 0 244 36" fill="none" xmlns="http://www.w3.org/2000/svg">
<rect width="36" height="36" rx="8" fill="#FFEAD5"/>
<path d="M19.4638 27V18.7894H22.3585L22.7919 15.5895H19.4637V13.5465C19.4637 12.6201 19.7339 11.9888 21.1293 11.9888L22.909 11.988V9.12607C22.6012 9.08715 21.5447 9 20.3157 9C17.7497 9 15.9929 10.4912 15.9929 13.2297V15.5895H13.0908V18.7894H15.9929V26.9999H19.4638V27Z" fill="#EC4A0A"/>
<rect x="52" width="36" height="36" rx="8" fill="#FFEAD5"/>
<path d="M73.0271 10.7005V10.6973H73.8711L74.1794 10.7589C74.385 10.7988 74.5717 10.8512 74.7394 10.9161C74.9071 10.9809 75.0694 11.0566 75.2263 11.143C75.3832 11.2294 75.5255 11.3175 75.6532 11.4072C75.7798 11.4958 75.8934 11.5898 75.9941 11.6892C76.0936 11.7897 76.2489 11.8156 76.4599 11.767C76.6709 11.7184 76.8981 11.6509 77.1416 11.5644C77.385 11.478 77.6258 11.3807 77.8638 11.2727C78.1019 11.1646 78.2469 11.096 78.2988 11.0668C78.3497 11.0366 78.3768 11.0204 78.38 11.0182L78.3832 11.0133L78.3995 11.0052L78.4157 10.9971L78.4319 10.989L78.4482 10.9809L78.4514 10.9761L78.4563 10.9728L78.4612 10.9696L78.4644 10.9647L78.4806 10.9598L78.4968 10.9566L78.4936 10.9809L78.4887 11.0052L78.4806 11.0295L78.4725 11.0539L78.4644 11.0701L78.4563 11.0863L78.4482 11.1106C78.4427 11.1268 78.4373 11.1484 78.4319 11.1754C78.4265 11.2024 78.3751 11.3105 78.2777 11.4996C78.1803 11.6887 78.0586 11.8805 77.9125 12.075C77.7665 12.2695 77.6355 12.4164 77.5198 12.5158C77.4029 12.6163 77.3255 12.6866 77.2876 12.7266C77.2498 12.7676 77.2038 12.8054 77.1497 12.84L77.0685 12.8935L77.0523 12.9016L77.0361 12.9097L77.0328 12.9146L77.028 12.9178L77.0231 12.9211L77.0198 12.9259L77.0036 12.934L76.9874 12.9421L76.9841 12.947L76.9793 12.9502L76.9744 12.9535L76.9711 12.9583L76.9679 12.9632L76.963 12.9664L76.9582 12.9697L76.9549 12.9745H77.0361L77.4905 12.8773C77.7935 12.8125 78.083 12.7341 78.3589 12.6423L78.7971 12.4964L78.8458 12.4802L78.8702 12.4721L78.8864 12.464L78.9026 12.4559L78.9188 12.4478L78.9351 12.4397L78.9675 12.4348L79 12.4316V12.464L78.9919 12.4672L78.9838 12.4721L78.9805 12.4769L78.9757 12.4802L78.9708 12.4834L78.9675 12.4883L78.9643 12.4932L78.9594 12.4964L78.9546 12.4996L78.9513 12.5045L78.9481 12.5094L78.9432 12.5126L78.9351 12.5288L78.927 12.545L78.9221 12.5483C78.9199 12.5515 78.8512 12.6433 78.716 12.8238C78.5807 13.0053 78.5077 13.0972 78.4968 13.0994C78.486 13.1026 78.4709 13.1188 78.4514 13.148C78.433 13.1782 78.3183 13.2987 78.1073 13.5094C77.8963 13.7201 77.6897 13.9076 77.4873 14.0719C77.2839 14.2372 77.1811 14.4403 77.1789 14.6813C77.1757 14.9212 77.1632 15.1924 77.1416 15.495C77.1199 15.7975 77.0794 16.1244 77.0198 16.4756C76.9603 16.8268 76.8684 17.2239 76.7439 17.6669C76.6195 18.1099 76.468 18.5421 76.2894 18.9636C76.1109 19.385 75.9243 19.7632 75.7295 20.0981C75.5347 20.4331 75.3562 20.7168 75.1939 20.9491C75.0316 21.1814 74.8666 21.4002 74.6988 21.6055C74.5311 21.8108 74.319 22.0421 74.0626 22.2992C73.8051 22.5553 73.6644 22.6958 73.6406 22.7207C73.6157 22.7444 73.5097 22.8331 73.3225 22.9865C73.1363 23.141 72.9362 23.2955 72.7219 23.45C72.5088 23.6035 72.3129 23.7315 72.1344 23.8342C71.9558 23.9368 71.7405 24.0541 71.4884 24.1859C71.2373 24.3188 70.9657 24.442 70.6736 24.5555C70.3814 24.6689 70.073 24.7743 69.7484 24.8715C69.4238 24.9688 69.11 25.0444 68.807 25.0984C68.5041 25.1525 68.1605 25.1984 67.7764 25.2362L67.2002 25.2929V25.301H66.1452V25.2929L66.0072 25.2848C65.9152 25.2794 65.8395 25.274 65.78 25.2686C65.7205 25.2632 65.4959 25.2335 65.1064 25.1795C64.7169 25.1255 64.4112 25.0714 64.1894 25.0174C63.9675 24.9634 63.6375 24.8607 63.1993 24.7094C62.761 24.5582 62.3861 24.4053 62.0745 24.2507C61.7639 24.0973 61.5692 24 61.4902 23.959C61.4123 23.919 61.3246 23.8693 61.2272 23.8099L61.0812 23.7207L61.0779 23.7159L61.073 23.7126L61.0682 23.7094L61.0649 23.7045L61.0487 23.6964L61.0325 23.6883L61.0292 23.6834L61.0243 23.6802L61.0195 23.677L61.0162 23.6721L61.013 23.6672L61.0081 23.664H61V23.6316L61.0162 23.6348L61.0325 23.6397L61.1055 23.6478C61.1542 23.6532 61.2868 23.6613 61.5032 23.6721C61.7196 23.6829 61.9495 23.6829 62.193 23.6721C62.4364 23.6613 62.6853 23.637 62.9396 23.5992C63.1939 23.5613 63.4941 23.4965 63.8404 23.4047C64.1867 23.3128 64.5048 23.2037 64.7948 23.0772C65.0837 22.9498 65.2893 22.8547 65.4116 22.792C65.5327 22.7304 65.7178 22.6158 65.9666 22.4484L66.3399 22.1971L66.3432 22.1923L66.3481 22.189L66.3529 22.1858L66.3562 22.1809L66.3594 22.1761L66.3643 22.1728L66.3692 22.1696L66.3724 22.1647L66.3886 22.1599L66.4049 22.1566L66.4081 22.1404L66.413 22.1242L66.4179 22.121L66.4211 22.1161L66.2913 22.108C66.2047 22.1026 66.1208 22.0972 66.0397 22.0918C65.9585 22.0864 65.8314 22.0621 65.6583 22.0188C65.4851 21.9756 65.2985 21.9108 65.0983 21.8243C64.8981 21.7379 64.7033 21.6352 64.514 21.5164C64.3246 21.3975 64.1877 21.2986 64.1033 21.2198C64.02 21.1419 63.9118 21.0317 63.7787 20.8891C63.6467 20.7454 63.532 20.5979 63.4346 20.4466C63.3372 20.2954 63.2442 20.1208 63.1555 19.9231L63.0207 19.6281L63.0126 19.6038L63.0045 19.5795L62.9996 19.5633L62.9964 19.5471L63.0207 19.5503L63.0451 19.5552L63.2236 19.5795C63.3427 19.5957 63.5293 19.6011 63.7836 19.5957C64.0379 19.5903 64.2137 19.5795 64.3111 19.5633C64.4085 19.5471 64.468 19.5362 64.4896 19.5308L64.5221 19.5227L64.5627 19.5146L64.6032 19.5065L64.6065 19.5017L64.6114 19.4984L64.6162 19.4952L64.6195 19.4903L64.587 19.4822L64.5546 19.4741L64.5221 19.466L64.4896 19.4579L64.4572 19.4498C64.4355 19.4444 64.3977 19.4336 64.3436 19.4174C64.2895 19.4012 64.1434 19.3417 63.9053 19.2391C63.6673 19.1364 63.4779 19.0365 63.3372 18.9392C63.1962 18.8417 63.0618 18.735 62.9347 18.6199C62.8081 18.5032 62.6691 18.353 62.5176 18.1693C62.3661 17.9857 62.2308 17.7722 62.1118 17.5291C61.9928 17.286 61.9035 17.0537 61.844 16.8321C61.7847 16.6119 61.7456 16.3868 61.7272 16.1595L61.6979 15.8191L61.7142 15.8224L61.7304 15.8272L61.7466 15.8353L61.7628 15.8434L61.7791 15.8515L61.7953 15.8596L62.0469 15.9731C62.2146 16.0487 62.4229 16.1136 62.6718 16.1676C62.9207 16.2216 63.0694 16.2514 63.1181 16.2567L63.1912 16.2649H63.3372L63.334 16.26L63.3291 16.2567L63.3243 16.2535L63.321 16.2486L63.3178 16.2438L63.3129 16.2405L63.308 16.2373L63.3048 16.2324L63.2885 16.2243L63.2723 16.2162L63.2691 16.2114L63.2642 16.2081L63.2593 16.2049L63.2561 16.2L63.2399 16.1919L63.2236 16.1838L63.2204 16.1789C63.2171 16.1768 63.1706 16.1422 63.0808 16.0752C62.9921 16.0071 62.899 15.9191 62.8016 15.811C62.7042 15.703 62.6069 15.5895 62.5095 15.4706C62.4119 15.3515 62.325 15.2241 62.2498 15.0897C62.174 14.9547 62.094 14.7829 62.0096 14.5743C61.9262 14.3668 61.8629 14.1578 61.8197 13.9471C61.7764 13.7363 61.752 13.5283 61.7466 13.323C61.7412 13.1177 61.7466 12.9421 61.7628 12.7963C61.7791 12.6504 61.8115 12.4856 61.8602 12.3019C61.9089 12.1182 61.9793 11.9237 62.0712 11.7184L62.2092 11.4104L62.2173 11.3861L62.2254 11.3618L62.2303 11.3586L62.2335 11.3537L62.2368 11.3488L62.2417 11.3456L62.2465 11.3488L62.2498 11.3537L62.253 11.3586L62.2579 11.3618L62.2628 11.3651L62.266 11.3699L62.2693 11.3748L62.2741 11.378L62.2822 11.3942L62.2904 11.4104L62.2952 11.4137L62.2985 11.4185L62.5176 11.6617C62.6637 11.8238 62.8368 12.0047 63.037 12.2046C63.2372 12.4045 63.3481 12.5083 63.3697 12.5158C63.3914 12.5245 63.4184 12.5493 63.4509 12.5904C63.4833 12.6304 63.5915 12.726 63.7755 12.8773C63.9594 13.0286 64.2002 13.2042 64.4977 13.4041C64.7953 13.604 65.1253 13.8012 65.4878 13.9957C65.8503 14.1902 66.2399 14.3658 66.6564 14.5224C67.073 14.6791 67.3652 14.7818 67.5329 14.8304C67.7006 14.879 67.9874 14.9412 68.3931 15.0168C68.7989 15.0925 69.1046 15.1411 69.3102 15.1627C69.5158 15.1843 69.6565 15.1967 69.7322 15.2L69.8458 15.2032L69.8426 15.1789L69.8377 15.1546L69.8052 14.952C69.7836 14.8169 69.7728 14.6278 69.7728 14.3847C69.7728 14.1416 69.7917 13.9173 69.8296 13.712C69.8675 13.5067 69.9243 13.2987 70 13.088C70.0757 12.8773 70.1499 12.7082 70.2224 12.5807C70.296 12.4543 70.3923 12.31 70.5113 12.1479C70.6303 11.9858 70.7845 11.8184 70.9739 11.6455C71.1632 11.4726 71.3796 11.3186 71.6231 11.1835C71.8665 11.0485 72.0911 10.9458 72.2967 10.8756C72.5023 10.8053 72.6754 10.7594 72.8161 10.7378C72.9567 10.7162 73.0271 10.7037 73.0271 10.7005Z" fill="#EC4A0A"/>
<rect x="104" width="36" height="36" rx="8" fill="#FFEAD5"/>
<path fill-rule="evenodd" clip-rule="evenodd" d="M113 18C113 14.4049 113 12.6073 113.857 11.3126C114.239 10.7344 114.734 10.2392 115.313 9.85669C116.607 9 118.405 9 122 9C125.595 9 127.393 9 128.687 9.85669C129.266 10.2392 129.761 10.7344 130.143 11.3126C131 12.6073 131 14.4049 131 18C131 21.5951 131 23.3927 130.143 24.6874C129.761 25.2656 129.266 25.7608 128.687 26.1433C127.393 27 125.595 27 122 27C118.405 27 116.607 27 115.313 26.1433C114.734 25.7608 114.239 25.2656 113.857 24.6874C113 23.3927 113 21.5951 113 18ZM126.659 18.0002C126.659 20.5735 124.573 22.6596 122 22.6596C119.427 22.6596 117.34 20.5735 117.34 18.0002C117.34 15.4269 119.427 13.3408 122 13.3408C124.573 13.3408 126.659 15.4269 126.659 18.0002ZM122 21.0832C123.703 21.0832 125.083 19.7029 125.083 18.0002C125.083 16.2975 123.703 14.9172 122 14.9172C120.297 14.9172 118.917 16.2975 118.917 18.0002C118.917 19.7029 120.297 21.0832 122 21.0832ZM126.843 14.2015C127.448 14.2015 127.938 13.7114 127.938 13.1067C127.938 12.5021 127.448 12.0119 126.843 12.0119C126.239 12.0119 125.748 12.5021 125.748 13.1067C125.748 13.7114 126.239 14.2015 126.843 14.2015Z" fill="#EC4A0A"/>
<rect x="156" width="36" height="36" rx="8" fill="#FFEAD5"/>
<path d="M165 11.4191C165 10.8419 165.203 10.3657 165.608 9.9905C166.014 9.61532 166.541 9.42773 167.189 9.42773C167.826 9.42773 168.342 9.61243 168.736 9.98185C169.141 10.3628 169.344 10.8592 169.344 11.471C169.344 12.0251 169.147 12.4869 168.753 12.8563C168.347 13.2373 167.815 13.4277 167.154 13.4277H167.137C166.5 13.4277 165.985 13.2373 165.591 12.8563C165.197 12.4754 165 11.9963 165 11.4191ZM165.226 26.5706V15.0035H169.083V26.5706H165.226ZM171.22 26.5706H175.077V20.1117C175.077 19.7077 175.124 19.396 175.216 19.1766C175.378 18.7841 175.625 18.4523 175.955 18.181C176.285 17.9097 176.699 17.7741 177.197 17.7741C178.494 17.7741 179.143 18.6456 179.143 20.3888V26.5706H183V19.9386C183 18.23 182.595 16.9342 181.784 16.0511C180.973 15.168 179.902 14.7264 178.569 14.7264C177.075 14.7264 175.911 15.3671 175.077 16.6485V16.6831H175.06L175.077 16.6485V15.0035H171.22C171.243 15.3729 171.255 16.5215 171.255 18.4494C171.255 20.3772 171.243 23.0843 171.22 26.5706Z" fill="#EC4A0A"/>
<rect x="208" width="36" height="36" rx="8" fill="#FFEAD5"/>
<path d="M226.439 24.9802L222.377 24.9043C221.061 24.8778 219.743 24.9306 218.453 24.6565C216.492 24.247 216.353 22.2391 216.207 20.5549C216.007 18.187 216.085 15.7762 216.463 13.4281C216.676 12.1106 217.516 11.3244 218.815 11.2389C223.201 10.9284 227.615 10.9652 231.991 11.1101C232.453 11.1233 232.918 11.1959 233.374 11.2785C235.623 11.6814 235.678 13.9568 235.824 15.8723C235.969 17.8075 235.908 19.7527 235.63 21.6747C235.407 23.2661 234.98 24.6007 233.18 24.7295C230.924 24.898 228.72 25.0336 226.458 24.9904C226.458 24.9802 226.445 24.9802 226.439 24.9802ZM224.051 20.9512C225.75 19.9538 227.418 18.973 229.108 17.9823C227.405 16.9849 225.741 16.0041 224.051 15.0133V20.9512Z" fill="#EC4A0A"/>
</svg>
