<svg width="104" height="35" viewBox="0 0 104 35" fill="none" xmlns="http://www.w3.org/2000/svg">
<path id="Logo/Twitch" d="M99.346 6.36715H94.8277V0.0415039H84.9064L80.3438 6.36715H72.2361L69.5251 9.07814V6.36715H63.1995V0.0415039H43.3189V6.36715H15.3505L10.787 0.0415039H0.84668V21.7294L13.498 34.3807H26.1493V30.7661L29.7639 34.3807H54.1628V30.7661L57.7775 34.3807H69.5251V30.7661L73.1398 34.3807H95.7313L103.864 26.2477V10.8855L99.346 6.36715ZM16.209 15.4038H9.88331V17.2111H16.209V24.4404H6.26866L2.65401 20.8258V1.84883H9.88331V8.17448H16.209V15.4038ZM43.3189 24.4404H21.6309L18.0163 20.8258V8.17448H25.2456V17.2111H27.0529V8.17448H34.2822V17.2111H36.0896V8.17448H43.3189V24.4404ZM52.3555 24.4404H45.1262V8.17448H52.3555V24.4404ZM52.3555 6.36715H45.1262V1.84883H52.3555V6.36715ZM67.7178 15.4038H61.3921V17.2111H67.7178V24.4404H57.7775L54.1628 20.8258V1.84883H61.3921V8.17448H67.7178V15.4038ZM83.9837 15.4038H76.7544V17.2111H83.9837V24.4404H73.1398L69.5251 20.8258V11.7891L73.1398 8.17448H83.9837V15.4038ZM102.057 24.4404H94.8277V15.4038H93.0204V24.4404H85.791V1.84883H93.0204V8.17448H98.4423L102.057 11.7891V24.4404Z" fill="#EAECF0" fill-opacity="0.5"/>
</svg>
