<svg xmlns="http://www.w3.org/2000/svg" width="104" height="35" viewBox="0 0 104 35" fill="none">
  <path d="M99.346 6.36764H94.8277V0.0419922H84.9064L80.3438 6.36764H72.2361L69.5251 9.07863V6.36764H63.1995V0.0419922H43.3189V6.36764H15.3505L10.787 0.0419922H0.84668V21.7299L13.498 34.3812H26.1493V30.7666L29.7639 34.3812H54.1628V30.7666L57.7775 34.3812H69.5251V30.7666L73.1398 34.3812H95.7313L103.864 26.2482V10.886L99.346 6.36764ZM16.209 15.4043H9.88331V17.2116H16.209V24.4409H6.26866L2.65401 20.8263V1.84932H9.88331V8.17496H16.209V15.4043ZM43.3189 24.4409H21.6309L18.0163 20.8263V8.17496H25.2456V17.2116H27.0529V8.17496H34.2822V17.2116H36.0896V8.17496H43.3189V24.4409ZM52.3555 24.4409H45.1262V8.17496H52.3555V24.4409ZM52.3555 6.36764H45.1262V1.84932H52.3555V6.36764ZM67.7178 15.4043H61.3921V17.2116H67.7178V24.4409H57.7775L54.1628 20.8263V1.84932H61.3921V8.17496H67.7178V15.4043ZM83.9837 15.4043H76.7544V17.2116H83.9837V24.4409H73.1398L69.5251 20.8263V11.7896L73.1398 8.17496H83.9837V15.4043ZM102.057 24.4409H94.8277V15.4043H93.0204V24.4409H85.791V1.84932H93.0204V8.17496H98.4423L102.057 11.7896V24.4409Z" fill="#EAECF0"/>
</svg>