<svg width="133" height="31" viewBox="0 0 133 31" fill="none" xmlns="http://www.w3.org/2000/svg">
<g id="Logo/YouTube">
<path id="Vector" d="M22.147 29.9755L13.4594 29.8149C10.6465 29.759 7.82666 29.8707 5.06902 29.291C0.873809 28.4248 0.57662 24.1778 0.265607 20.6154C-0.162898 15.607 0.00297482 10.5078 0.811607 5.54135C1.26776 2.75426 3.06472 1.09179 5.84309 0.910174C15.2218 0.253567 24.6628 0.330404 34.0208 0.637752C35.0091 0.665693 36.0044 0.819367 36.9789 0.993997C41.7892 1.84619 41.9067 6.65898 42.2177 10.7104C42.5287 14.8037 42.3974 18.918 41.803 22.9834C41.3261 26.3502 40.4138 29.1722 36.5642 29.4446C31.74 29.8009 27.0265 30.0873 22.1885 29.9965C22.1885 29.9755 22.1609 29.9755 22.147 29.9755ZM17.0395 21.4536C20.6749 19.3441 24.2412 17.2695 27.8558 15.1739C24.2135 13.0644 20.6542 10.9898 17.0395 8.89424V21.4536Z" fill="#EAECF0" fill-opacity="0.5"/>
<g id="Group">
<path id="Vector_2" d="M111.9 26.1479C111.735 26.8325 111.589 27.3703 111.444 27.9431H108.044V1.43408H112.011V11.2134C112.218 10.948 112.322 10.8362 112.412 10.7175C113.089 9.77448 113.967 9.15977 115.1 8.92227C116.904 8.56603 118.446 9.36933 118.992 11.1226C119.344 12.2123 119.572 13.3789 119.6 14.5175C119.655 17.4443 119.614 20.3641 119.51 23.2909C119.468 24.1851 119.199 25.1001 118.86 25.9383C117.747 28.7045 114.112 29.1236 112.308 26.7277C112.198 26.581 112.094 26.4203 111.9 26.1479ZM112.094 18.8553V23.7031C112.094 24.4924 112.509 24.9744 113.29 25.156C114.057 25.3376 114.679 25.0373 114.99 24.3178C115.121 24.0174 115.252 23.7031 115.259 23.3887C115.335 20.427 115.405 17.4652 115.425 14.4965C115.425 13.9447 115.294 13.3719 115.128 12.834C114.817 11.8631 113.96 11.5767 113.117 12.1425C112.481 12.5756 112.094 13.1903 112.094 14.0075V18.8553ZM101.312 9.29948H105.466V27.9571H102.225C102.107 27.2516 101.99 26.5251 101.851 25.6729C101.63 26.0012 101.499 26.2108 101.361 26.4203C100.282 27.992 98.755 28.5299 96.9511 28.2435C95.4099 27.992 94.4838 26.7906 94.2764 24.8207C94.2142 24.2339 94.1866 23.6402 94.1866 23.0534C94.1728 18.6877 94.1866 14.3079 94.1866 9.94212V9.28551H98.3887V10.0469C98.3887 14.266 98.3749 18.4781 98.4025 22.6972C98.4025 23.2979 98.4647 23.9196 98.5684 24.5203C98.6859 25.135 99.1282 25.3586 99.7226 25.3167C100.683 25.2398 101.347 24.5203 101.347 23.5564V10.1237C101.312 9.85131 101.312 9.59984 101.312 9.29948ZM72.713 9.28551H76.8874V10.0748C76.8874 14.273 76.8736 18.4641 76.9013 22.6483C76.9013 23.249 76.9565 23.8707 77.081 24.4575C77.2399 25.149 77.6408 25.3725 78.325 25.2817C79.2719 25.149 79.8455 24.4854 79.8524 23.5145V10.1517V9.31345H84.0061V27.9571H80.7785C80.661 27.2655 80.5435 26.5531 80.3915 25.652C80.1842 25.9663 80.0667 26.1479 79.9492 26.3365C78.871 27.9361 77.3574 28.5229 75.5121 28.2365C74.033 28.013 73.1276 26.9093 72.8512 25.1001C72.7752 24.5343 72.7199 23.9755 72.7199 23.4097C72.7061 18.8763 72.706 14.3219 72.706 9.78845L72.713 9.28551ZM70.5704 19.2465C70.5566 19.8752 70.5151 20.5038 70.4806 21.1325C70.3216 23.0185 70.2456 25.6939 68.7389 27.07C67.7782 27.9361 66.5618 28.2505 65.304 28.2924C64.7442 28.3064 64.1774 28.3063 63.6176 28.2295C60.9705 27.8244 59.7403 26.6439 59.298 23.7031C58.7935 20.3082 58.752 16.8575 59.3533 13.4627C59.9753 9.94911 62.1178 8.70573 65.4491 8.93624C68.5592 9.15977 69.9484 11.2204 70.3147 14.1542C70.5151 15.8377 70.6119 17.5421 70.5704 19.2465ZM66.3407 18.6038C66.3407 17.4094 66.3683 16.2079 66.3269 15.0134C66.2992 14.3219 66.2094 13.6233 66.0642 12.9388C65.8983 12.1495 65.4007 11.7723 64.7787 11.7862C64.1705 11.8002 63.742 12.1774 63.5208 12.9109C63.4448 13.1833 63.3619 13.4627 63.3619 13.7351C63.3619 15.6072 63.3481 17.4862 63.3342 19.3582C63.3204 21.1046 63.0992 22.9347 63.6452 24.6042C63.8111 25.1141 64.2396 25.3935 64.7994 25.3935C65.3454 25.3935 65.7048 25.1211 65.9053 24.6321C66.0642 24.2549 66.2024 23.8428 66.2024 23.4376C66.2508 21.831 66.3407 20.2174 66.3407 18.6038ZM53.2022 15.0903C53.5685 13.2811 53.914 11.5138 54.2942 9.73955C54.771 7.48331 55.3032 5.22707 55.7732 2.96385C55.8907 2.41202 56.1118 2.2793 56.6302 2.29327C57.7429 2.33518 58.8764 2.30724 60.0652 2.30724C59.6781 3.7462 59.298 5.11531 58.9248 6.46346C57.7429 10.6965 56.5611 14.9436 55.3931 19.1906C55.3032 19.5189 55.2617 19.8752 55.2617 20.2244C55.2479 22.5435 55.2617 24.8556 55.2617 27.1747V27.9291H51.2048C51.1909 27.7196 51.1633 27.51 51.1633 27.3005C51.1633 25.9872 51.0596 24.667 51.1771 23.3678C51.4743 20.2454 50.4929 17.3744 49.6981 14.4686C48.6476 10.6267 47.5832 6.77082 46.5327 2.92893C46.4774 2.74731 46.4567 2.55172 46.4014 2.32819H50.5413C51.4121 6.56824 52.2899 10.8083 53.2022 15.0903ZM132.579 19.959H125.585C125.661 21.377 125.689 22.7251 125.834 24.0593C125.937 24.9884 126.442 25.3865 127.237 25.3935C128.066 25.4075 128.55 24.9884 128.743 24.0663C128.806 23.7659 128.847 23.4656 128.875 23.1582C128.902 22.8858 128.916 22.5924 128.937 22.2012C130.119 22.2641 131.273 22.334 132.413 22.3829C133.077 24.3737 131.881 26.9303 129.87 27.7196C128.287 28.3483 126.663 28.3483 125.046 27.8663C123.85 27.51 122.959 26.7417 122.558 25.5611C122.185 24.4575 121.832 23.3049 121.756 22.1523C121.549 19.3093 121.473 16.4384 121.901 13.5884C121.977 13.1134 122.109 12.6594 122.254 12.1984C122.834 10.2984 124.099 9.13183 126.055 8.93624C127.119 8.83147 128.218 8.87338 129.269 9.05499C130.969 9.35536 131.874 10.5917 132.268 12.2123C132.448 12.9737 132.579 13.7561 132.607 14.5314C132.614 16.3127 132.579 18.0799 132.579 19.959ZM128.605 17.5072C128.605 16.1031 128.619 14.7829 128.591 13.4557C128.591 13.1414 128.474 12.8131 128.356 12.5127C128.121 11.9259 127.631 11.7653 127.043 11.7653C126.456 11.7653 126.083 12.0656 125.937 12.6035C125.495 14.2171 125.64 15.8656 125.654 17.5211C126.712 17.5071 127.672 17.5072 128.605 17.5072Z" fill="#EAECF0" fill-opacity="0.5"/>
<path id="Vector_3" d="M87.2128 5.73018H83.1006V2.36328H95.3751V5.70922H91.2905V27.9293H87.2197L87.2128 5.73018Z" fill="#EAECF0" fill-opacity="0.5"/>
</g>
</g>
</svg>
