<svg xmlns="http://www.w3.org/2000/svg" width="133" height="31" viewBox="0 0 133 31" fill="none">
  <path d="M22.1473 29.975L13.4597 29.8144C10.6467 29.7585 7.8269 29.8703 5.06926 29.2905C0.874053 28.4243 0.576864 24.1773 0.265851 20.6149C-0.162654 15.6065 0.00321896 10.5073 0.811851 5.54086C1.268 2.75377 3.06496 1.0913 5.84334 0.909686C15.2221 0.253079 24.663 0.329916 34.021 0.637264C35.0094 0.665205 36.0046 0.818879 36.9791 0.993508C41.7894 1.8457 41.9069 6.65849 42.2179 10.7099C42.529 14.8032 42.3976 18.9175 41.8033 22.9829C41.3264 26.3497 40.4141 29.1717 36.5644 29.4442C31.7403 29.8004 27.0267 30.0868 22.1888 29.996C22.1888 29.975 22.1611 29.975 22.1473 29.975ZM17.0398 21.4531C20.6752 19.3436 24.2414 17.269 27.8561 15.1734C24.2138 13.0639 20.6544 10.9893 17.0398 8.89375V21.4531Z" fill="#EAECF0"/>
  <path d="M111.901 26.1474C111.735 26.832 111.59 27.3698 111.445 27.9426H108.044V1.43359H112.012V11.2129C112.219 10.9475 112.323 10.8357 112.412 10.717C113.09 9.77399 113.967 9.15928 115.101 8.92179C116.905 8.56554 118.446 9.36884 118.992 11.1221C119.344 12.2118 119.573 13.3784 119.6 14.517C119.655 17.4438 119.614 20.3636 119.51 23.2905C119.469 24.1846 119.199 25.0996 118.861 25.9379C117.748 28.704 114.113 29.1231 112.309 26.7272C112.198 26.5805 112.094 26.4198 111.901 26.1474ZM112.094 18.8548V23.7026C112.094 24.4919 112.509 24.9739 113.29 25.1555C114.057 25.3371 114.679 25.0368 114.99 24.3173C115.122 24.0169 115.253 23.7026 115.26 23.3882C115.336 20.4265 115.405 17.4648 115.426 14.496C115.426 13.9442 115.294 13.3714 115.129 12.8335C114.818 11.8626 113.961 11.5762 113.117 12.142C112.481 12.5751 112.094 13.1898 112.094 14.007V18.8548ZM101.313 9.29899H105.466V27.9566H102.225C102.108 27.2511 101.99 26.5246 101.852 25.6724C101.631 26.0007 101.499 26.2103 101.361 26.4198C100.283 27.9915 98.7555 28.5294 96.9516 28.243C95.4104 27.9915 94.4843 26.7901 94.2769 24.8202C94.2147 24.2335 94.1871 23.6397 94.1871 23.053C94.1733 18.6872 94.1871 14.3074 94.1871 9.94163V9.28502H98.3892V10.0464C98.3892 14.2655 98.3754 18.4776 98.403 22.6967C98.403 23.2974 98.4652 23.9191 98.5689 24.5199C98.6864 25.1346 99.1287 25.3581 99.7231 25.3162C100.684 25.2393 101.347 24.5199 101.347 23.5559V10.1232C101.313 9.85082 101.313 9.59935 101.313 9.29899ZM72.7135 9.28502H76.8879V10.0744C76.8879 14.2725 76.8741 18.4636 76.9017 22.6478C76.9017 23.2485 76.957 23.8702 77.0814 24.457C77.2404 25.1485 77.6413 25.3721 78.3255 25.2812C79.2723 25.1485 79.846 24.4849 79.8529 23.514V10.1512V9.31296H84.0066V27.9566H80.779C80.6615 27.2651 80.544 26.5526 80.392 25.6515C80.1846 25.9658 80.0672 26.1474 79.9497 26.336C78.8715 27.9356 77.3579 28.5224 75.5126 28.236C74.0335 28.0125 73.1281 26.9088 72.8517 25.0996C72.7757 24.5338 72.7204 23.975 72.7204 23.4092C72.7065 18.8758 72.7065 14.3214 72.7065 9.78796L72.7135 9.28502ZM70.5709 19.246C70.5571 19.8747 70.5156 20.5033 70.4811 21.132C70.3221 23.018 70.2461 25.6934 68.7394 27.0695C67.7787 27.9356 66.5623 28.25 65.3045 28.2919C64.7446 28.3059 64.1779 28.3059 63.6181 28.229C60.971 27.8239 59.7408 26.6434 59.2985 23.7026C58.7939 20.3077 58.7525 16.857 59.3538 13.4622C59.9758 9.94862 62.1183 8.70524 65.4496 8.93576C68.5597 9.15928 69.9489 11.2199 70.3152 14.1537C70.5156 15.8372 70.6124 17.5416 70.5709 19.246ZM66.3412 18.6033C66.3412 17.4089 66.3688 16.2074 66.3273 15.0129C66.2997 14.3214 66.2098 13.6229 66.0647 12.9383C65.8988 12.149 65.4012 11.7718 64.7792 11.7857C64.171 11.7997 63.7425 12.1769 63.5213 12.9104C63.4453 13.1828 63.3624 13.4622 63.3624 13.7346C63.3624 15.6067 63.3485 17.4857 63.3347 19.3578C63.3209 21.1041 63.0997 22.9342 63.6457 24.6037C63.8116 25.1136 64.2401 25.393 64.7999 25.393C65.3459 25.393 65.7053 25.1206 65.9057 24.6316C66.0647 24.2544 66.2029 23.8423 66.2029 23.4371C66.2513 21.8305 66.3412 20.2169 66.3412 18.6033ZM53.2026 15.0898C53.569 13.2806 53.9145 11.5133 54.2946 9.73906C54.7715 7.48282 55.3037 5.22659 55.7737 2.96336C55.8912 2.41153 56.1123 2.27881 56.6307 2.29278C57.7434 2.33469 58.8769 2.30675 60.0656 2.30675C59.6786 3.74571 59.2985 5.11482 58.9253 6.46298C57.7434 10.696 56.5616 14.9431 55.3936 19.1901C55.3037 19.5184 55.2622 19.8747 55.2622 20.2239C55.2484 22.543 55.2622 24.8551 55.2622 27.1743V27.9287H51.2053C51.1914 27.7191 51.1638 27.5095 51.1638 27.3C51.1638 25.9868 51.0601 24.6665 51.1776 23.3673C51.4748 20.2449 50.4934 17.3739 49.6986 14.4681C48.6481 10.6262 47.5837 6.77033 46.5332 2.92844C46.4779 2.74682 46.4571 2.55123 46.4019 2.32771H50.5418C51.4126 6.56775 52.2903 10.8078 53.2026 15.0898ZM132.58 19.9585H125.585C125.661 21.3765 125.689 22.7246 125.834 24.0588C125.938 24.9879 126.442 25.386 127.237 25.393C128.067 25.407 128.55 24.9879 128.744 24.0658C128.806 23.7654 128.848 23.4651 128.875 23.1577C128.903 22.8853 128.917 22.5919 128.937 22.2008C130.119 22.2636 131.274 22.3335 132.414 22.3824C133.077 24.3732 131.882 26.9298 129.871 27.7191C128.288 28.3478 126.664 28.3478 125.046 27.8658C123.851 27.5095 122.959 26.7412 122.558 25.5607C122.185 24.457 121.833 23.3044 121.757 22.1519C121.549 19.3089 121.473 16.4379 121.902 13.5879C121.978 13.1129 122.109 12.6589 122.254 12.1979C122.835 10.2979 124.1 9.13134 126.055 8.93576C127.12 8.83098 128.219 8.87289 129.269 9.05451C130.969 9.35487 131.875 10.5913 132.269 12.2118C132.448 12.9732 132.58 13.7556 132.607 14.5309C132.614 16.3122 132.58 18.0795 132.58 19.9585ZM128.606 17.5067C128.606 16.1026 128.62 14.7824 128.592 13.4552C128.592 13.1409 128.474 12.8126 128.357 12.5122C128.122 11.9254 127.631 11.7648 127.044 11.7648C126.456 11.7648 126.083 12.0651 125.938 12.603C125.496 14.2166 125.641 15.8651 125.655 17.5206C126.712 17.5067 127.673 17.5067 128.606 17.5067Z" fill="#EAECF0"/>
  <path d="M87.2133 5.7292H83.1011V2.3623H95.3756V5.70825H91.291V27.9284H87.2202L87.2133 5.7292Z" fill="#EAECF0"/>
</svg>