<svg width="40" height="40" viewBox="0 0 40 40" fill="none" xmlns="http://www.w3.org/2000/svg">
<g id="hugeicons:ai-network">
<g id="Group">
<path id="Vector" d="M35.4163 9.16683C35.0848 9.16683 34.7669 9.03513 34.5325 8.80071C34.298 8.56629 34.1663 8.24835 34.1663 7.91683C34.1663 7.58531 34.298 7.26737 34.5325 7.03295C34.7669 6.79853 35.0848 6.66683 35.4163 6.66683C35.7479 6.66683 36.0658 6.79853 36.3002 7.03295C36.5346 7.26737 36.6663 7.58531 36.6663 7.91683C36.6663 8.24835 36.5346 8.56629 36.3002 8.80071C36.0658 9.03513 35.7479 9.16683 35.4163 9.16683ZM35.4163 9.16683V15.4168C35.4163 16.5802 35.4163 17.1618 35.273 17.6335C35.1141 18.1582 34.8282 18.6356 34.4407 19.0235C34.0532 19.4113 33.5759 19.6975 33.0513 19.8568C32.578 20.0002 31.9963 20.0002 30.833 20.0002M4.58301 30.8335C4.91453 30.8335 5.23247 30.9652 5.46689 31.1996C5.70131 31.434 5.83301 31.752 5.83301 32.0835C5.83301 32.415 5.70131 32.733 5.46689 32.9674C5.23247 33.2018 4.91453 33.3335 4.58301 33.3335C4.25149 33.3335 3.93354 33.2018 3.69912 32.9674C3.4647 32.733 3.33301 32.415 3.33301 32.0835C3.33301 31.752 3.4647 31.434 3.69912 31.1996C3.93354 30.9652 4.25149 30.8335 4.58301 30.8335ZM4.58301 30.8335V24.5835C4.58301 23.4202 4.58301 22.8385 4.72634 22.3668C4.88525 21.8421 5.17114 21.3647 5.55867 20.9769C5.9462 20.589 6.42341 20.3028 6.94801 20.1435C7.42134 20.0002 8.00301 20.0002 9.16634 20.0002M9.16634 4.5835C9.16634 4.91502 9.03465 5.23296 8.80023 5.46738C8.5658 5.7018 8.24786 5.8335 7.91634 5.8335C7.58482 5.8335 7.26688 5.7018 7.03246 5.46738C6.79804 5.23296 6.66634 4.91502 6.66634 4.5835C6.66634 4.25198 6.79804 3.93403 7.03246 3.69961C7.26688 3.46519 7.58482 3.3335 7.91634 3.3335C8.24786 3.3335 8.5658 3.46519 8.80023 3.69961C9.03465 3.93403 9.16634 4.25198 9.16634 4.5835ZM9.16634 4.5835H15.4163C16.5797 4.5835 17.1613 4.5835 17.633 4.72683C18.1577 4.88574 18.6351 5.17163 19.023 5.55916C19.4108 5.94669 19.697 6.4239 19.8563 6.9485C19.9997 7.42183 19.9997 8.0035 19.9997 9.16683M30.833 35.4168C30.833 35.0853 30.9647 34.7674 31.1991 34.5329C31.4335 34.2985 31.7515 34.1668 32.083 34.1668C32.4145 34.1668 32.7325 34.2985 32.9669 34.5329C33.2013 34.7674 33.333 35.0853 33.333 35.4168C33.333 35.7484 33.2013 36.0663 32.9669 36.3007C32.7325 36.5351 32.4145 36.6668 32.083 36.6668C31.7515 36.6668 31.4335 36.5351 31.1991 36.3007C30.9647 36.0663 30.833 35.7484 30.833 35.4168ZM30.833 35.4168H24.583C23.4197 35.4168 22.838 35.4168 22.3663 35.2735C21.8416 35.1146 21.3642 34.8287 20.9764 34.4412C20.5886 34.0536 20.3023 33.5764 20.143 33.0518C19.9997 32.5785 19.9997 31.9968 19.9997 30.8335" stroke="white" stroke-width="2" stroke-linecap="round" stroke-linejoin="round"/>
<path id="Vector_2" d="M9.24805 19.9183C9.24805 14.8116 9.24805 12.2583 10.8347 10.6716C12.4214 9.08496 14.9747 9.08496 20.0814 9.08496C25.188 9.08496 27.7414 9.08496 29.328 10.6716C30.9147 12.2583 30.9147 14.8116 30.9147 19.9183C30.9147 25.025 30.9147 27.5783 29.328 29.165C27.7414 30.7516 25.188 30.7516 20.0814 30.7516C14.9747 30.7516 12.4214 30.7516 10.8347 29.165C9.24805 27.5783 9.24805 25.025 9.24805 19.9183Z" stroke="white" stroke-width="2" stroke-linecap="round" stroke-linejoin="round"/>
<path id="Vector_3" d="M20.8317 24.1666L18.3983 16.6316C18.3139 16.3938 18.1567 16.1887 17.9491 16.0454C17.7414 15.9021 17.4939 15.8279 17.2417 15.8333C16.9897 15.8282 16.7425 15.9026 16.5352 16.0459C16.3279 16.1892 16.171 16.3941 16.0867 16.6316L13.6533 24.1666M24.9983 15.8333V24.1666M14.5483 21.6666H19.935" stroke="white" stroke-width="2" stroke-linecap="round" stroke-linejoin="round"/>
</g>
</g>
</svg>
