<svg width="36" height="36" viewBox="0 0 36 36" fill="none" xmlns="http://www.w3.org/2000/svg">
<g id="ix:customer">
<path id="Vector" fill-rule="evenodd" clip-rule="evenodd" d="M16.5 3C19.3995 3 21.7501 5.35048 21.7501 8.24995C21.7501 11.0528 19.5536 13.3427 16.7881 13.4922L16.5 13.5C13.6006 13.5 11.25 11.1495 11.25 8.24995C11.25 5.44716 13.4464 3.15722 16.212 3.00773L16.5 3ZM6 30H19.2041C18.6674 29.0727 18.3017 28.0566 18.1245 27H9.00002V24.6L9.00783 24.3088C9.15246 21.6112 11.294 19.5 13.875 19.5H19.125L19.3998 19.508C19.6676 19.5236 19.93 19.562 20.1851 19.6213C20.9435 18.7425 21.8642 18.0181 22.8967 17.4877C21.7766 16.858 20.4915 16.5 19.125 16.5H13.875L13.5504 16.5068C9.35173 16.6818 6 20.2383 6 24.6V30ZM14.25 8.24995C14.25 7.00732 15.2574 5.99995 16.5 5.99995C17.7427 5.99995 18.75 7.00732 18.75 8.24995C18.75 9.49259 17.7427 10.5 16.5 10.5C15.2574 10.5 14.25 9.49259 14.25 8.24995ZM22.5916 31.5676L27 28.875L31.4084 31.5676L30.2099 26.5429L34.1329 23.1824L28.9838 22.7696L27 18L25.0162 22.7696L19.8671 23.1824L23.7902 26.5429L22.5916 31.5676Z" fill="white"/>
</g>
</svg>
