<svg width="38" height="38" viewBox="0 0 38 38" fill="none" xmlns="http://www.w3.org/2000/svg">
<g id="mdi:report-box-plus-outline">
<path id="Vector" d="M34.8333 7.9165V11.0832H30.0833V15.8332H26.9167V11.0832H22.1667V7.9165H26.9167V3.1665H30.0833V7.9165H34.8333ZM30.0833 30.0832H7.91667V7.9165H17.4167V4.74984H7.91667C6.175 4.74984 4.75 6.17484 4.75 7.9165V30.0832C4.75 31.8248 6.175 33.2498 7.91667 33.2498H30.0833C31.825 33.2498 33.25 31.8248 33.25 30.0832V20.5832H30.0833V30.0832ZM23.75 20.5832V26.9165H26.9167V20.5832H23.75ZM17.4167 26.9165H20.5833V14.2498H17.4167V26.9165ZM14.25 26.9165V17.4165H11.0833V26.9165H14.25Z" fill="white"/>
</g>
</svg>
